#N canvas -8 -8 1920 1008 12;
#X obj 80 21 bng 15 250 50 0 empty empty empty 17 7 0 10 -262144 -1
-1;
#X obj 87 224 send;
#X obj 1305 247 bng 15 250 50 0 empty empty empty 17 7 0 10 -262144
-1 -1;
#X obj 167 230 bng 15 250 50 0 empty empty empty 17 7 0 10 -262144
-1 -1;
#X obj 85 160 serial_print any;
#X obj 319 878 bng 15 250 50 0 empty empty empty 17 7 0 10 -262144
-1 -1;
#X floatatom 319 860 5 0 0 0 - - -;
#X obj 57 477 receive CPU;
#X obj 319 841 r AIN0;
#X obj 365 878 bng 15 250 50 0 empty empty empty 17 7 0 10 -262144
-1 -1;
#X floatatom 365 860 5 0 0 0 - - -;
#X obj 411 878 bng 15 250 50 0 empty empty empty 17 7 0 10 -262144
-1 -1;
#X floatatom 411 860 5 0 0 0 - - -;
#X obj 457 878 bng 15 250 50 0 empty empty empty 17 7 0 10 -262144
-1 -1;
#X floatatom 457 860 5 0 0 0 - - -;
#X obj 365 841 r AIN1;
#X obj 410 841 r AIN2;
#X obj 457 841 r AIN3, f 11;
#N canvas 0 50 450 250 (subpatch) 0;
#X array an0 100 float 1;
#A 0 0 0 0 0 0 0 0 0 0 0 0 0 0 0 0 62 127 135 135 113 23 0 0 0 0 0
0 0 0 0 0 0 0 0 0 0 0 0 0 0 0 0 0 0 0 0 0 0 0 0 0 0 0 0 0 0 0 0 0 0
0 0 0 0 0 0 0 0 0 0 0 0 0 0 0 0 0 0 0 0 0 0 0 0 0 0 0 0 0 0 0 0 0 0
0 0 0 0 0 0;
#X coords 0 255 100 0 200 140 1 0 0;
#X restore 312 920 graph;
#X obj 303 773 tabwrite an0;
#X obj 310 662 bng 15 250 50 0 empty empty empty 17 7 0 10 -262144
-1 -1;
#X obj 314 588 bng 15 250 50 0 empty empty empty 17 7 0 10 -262144
-1 -1;
#X obj 376 562 bng 15 250 50 0 empty empty empty 17 7 0 10 -262144
-1 -1;
#X obj 440 665 float;
#X floatatom 438 706 5 0 0 0 - - -;
#X msg 483 621 0;
#X obj 495 579 bng 15 250 50 0 empty empty empty 17 7 0 10 -262144
-1 -1;
#X obj 448 614 bng 15 250 50 0 empty empty empty 17 7 0 10 -262144
-1 -1;
#X obj 490 718 %;
#X msg 515 694 100;
#X floatatom 418 789 5 0 0 0 - - -;
#X obj 338 700 bng 15 250 50 0 empty empty empty 17 7 0 10 -262144
-1 -1;
#X obj 309 736 float;
#X obj 1233 186 receive LOOPTICK;
#X floatatom 1299 279 5 0 0 0 - - -;
#X obj 61 696 tabread an0;
#N canvas 0 50 450 250 (subpatch) 0;
#X array an0_n 100 float 1;
#A 0 0 0 62 127 135 135 113 23 0 0 0 0 0 0 0 0 0 0 0 0 0 0 0 0 0 0
0 0 0 0 0 0 0 0 0 0 0 0 0 0 0 0 0 0 0 0 0 0 0 0 0 0 0 0 0 0 0 0 0 0
0 0 0 0 0 0 0 0 0 0 0 0 0 0 0 0 0 0 0 0 0 0 0 0 0 0 0 0 0 0 0 0 0 0
0 0 0 0 0 0;
#X coords 0 255 100 0 200 140 1 0 0;
#X restore 312 1082 graph;
#X msg 64 557 100, f 4;
#X obj 64 601 until;
#X obj 64 629 f;
#X obj 102 629 + 1;
#X obj 147 628 sel 0;
#X obj 102 655 mod 100;
#X obj 54 746 tabwrite an0_n;
#X obj 170 713 mod 100;
#X obj 167 686 -;
#X obj 64 527 bng 15 250 50 0 empty empty empty 17 7 0 10 -262144 -1
-1;
#X obj 708 265 receive HEXTEST;
#X obj 695 443 print;
#X msg 779 295 1 2;
#X obj 317 613 metro 50;
#X obj 913 878 easyflow/hexCharToDec;
#X msg 894 324 f f;
#X obj 715 335 route float;
#X obj 785 388 list prepend symbol;
#X obj 785 410 list trim;
#X obj 733 376 bng 15 250 50 0 empty empty empty 17 7 0 10 -262144
-1 -1;
#X obj 826 347 bng 15 250 50 0 empty empty empty 17 7 0 10 -262144
-1 -1;
#X obj 816 744 until;
#X obj 834 828 list store;
#X obj 842 711 t b b l;
#X obj 816 769 f;
#X obj 854 770 + 1;
#X msg 868 744 0, f 2;
#X msg 815 798 get \$1 1;
#X obj 797 1035 +;
#X obj 840 1041 f;
#X obj 766 973 pow;
#X obj 785 1004 *;
#X obj 747 900 bng 15 250 50 0 empty empty empty 17 7 0 10 -262144
-1 -1;
#X floatatom 821 1070 5 0 0 0 - - -;
#X floatatom 798 936 5 0 0 0 - - -;
#X obj 820 873 list length;
#X obj 770 864 * -1;
#X obj 800 904 +;
#X obj 842 682 list;
#X obj 756 943 16;
#X obj 496 665 + 1;
#X obj 869 1126 print FROMHEX:;
#X obj 867 1073 f;
#X floatatom 869 1102 5 0 0 0 - - -;
#X obj 909 712 print;
#X msg 784 623 9 f 2;
#X text 764 553 This Converts Hex to Dec;
#X msg 106 19 devices;
#X msg 187 19 ports;
#X obj 236 314 print Com settings;
#X obj 178 121 route ports;
#X msg 249 17 close;
#X text 288 16 Close Serial port;
#X msg 309 54 open \$1;
#X msg 448 21 3;
#X obj 83 88 comport;
#X obj 226 156 unpack 0 s;
#X symbolatom 293 186 10 0 0 0 - - -;
#X floatatom 231 190 5 0 0 0 - - -;
#X obj 291 214 bng 15 250 50 0 empty empty empty 17 7 0 10 -262144
-1 -1;
#X obj 236 239 list prepend;
#X obj 342 240 t l;
#X obj 509 490 print;
#X obj 448 322 list store;
#X obj 461 206 t b b l;
#X obj 435 264 f;
#X obj 473 265 + 1;
#X msg 472 232 0, f 2;
#X msg 434 293 get \$1 1;
#X obj 433 229 bng 15 250 50 0 empty empty empty 17 7 0 10 -262144
-1 -1;
#X floatatom 465 404 5 0 0 0 - - -;
#X msg 554 145 3 4 26 27 29;
#X text 430 404 Port;
#X obj 466 430 bng 15 250 50 0 empty empty empty 17 7 0 10 -262144
-1 -1;
#X obj 488 429 f;
#X msg 518 429 open \$1;
#X text 430 429 Open;
#X obj 466 382 bng 15 250 50 0 empty empty empty 17 7 0 10 -262144
-1 -1;
#X text 429 381 Next;
#X obj 327 118 bng 15 250 50 0 empty empty empty 17 7 0 10 -262144
-1 -1;
#X obj 465 360 bng 15 250 50 0 empty empty empty 17 7 0 10 -262144
-1 -1;
#X text 405 359 Refresh;
#X obj 529 354 bng 15 250 50 0 empty empty empty 17 7 0 10 -262144
-1 -1;
#X obj 524 372 bng 15 250 50 0 empty empty empty 17 7 0 10 -262144
-1 -1;
#X obj 466 450 bng 15 250 50 0 empty empty empty 17 7 0 10 -262144
-1 -1;
#X text 423 449 Close;
#X msg 548 452 close;
#X obj 497 453 t b b;
#X obj 64 872 mtof;
#X obj 75 1152 dac~;
#X obj 60 832 / 2;
#X obj 136 931 *~;
#X floatatom 169 884 5 0 0 0 - - -;
#X obj 166 861 / 256;
#X obj 175 1080 expr~ $v1 > 0.5;
#X obj 174 1111 *~;
#X obj 64 904 phasor~;
#X obj 237 1016 mtof;
#X obj 233 976 / 2;
#X obj 237 1048 phasor~;
#X floatatom 232 929 5 0 0 0 - - -;
#X obj 229 906 / 256;
#X obj 90 1115 +~;
#X obj 1227 316 bng 15 250 50 0 empty empty empty 17 7 0 10 -262144
-1 -1;
#X floatatom 1221 348 5 0 0 0 - - -;
#X obj 1155 255 receive REALTIME;
#X obj 1438 428 bng 15 250 50 0 empty empty empty 17 7 0 10 -262144
-1 -1;
#X floatatom 1432 460 5 0 0 0 - - -;
#X obj 1366 367 receive TASK0;
#X obj 1544 427 bng 15 250 50 0 empty empty empty 17 7 0 10 -262144
-1 -1;
#X floatatom 1538 459 5 0 0 0 - - -;
#X obj 1472 366 receive TASK1;
#X obj 1326 527 /;
#X floatatom 1326 570 5 0 0 0 - - -;
#X obj 1443 524 /;
#X floatatom 1443 567 5 0 0 0 - - -;
#X obj 1325 606 vsl 15 128 0 1 0 0 empty empty empty 0 -9 0 10 -262144
-1 -1 801 1;
#X obj 1442 611 vsl 15 128 0 1 0 0 empty empty empty 0 -9 0 10 -262144
-1 -1 6984 1;
#N canvas 0 50 450 300 conv 0;
#X msg 215 106 symbol f2g;
#X msg 296 71 symbol 2f4d;
#X msg 362 133 symbol fffffggg;
#X floatatom 441 192 12 0 0 0 - - -;
#N canvas -8 -8 1920 1008 integer-processor 0;
#X obj 607 31 inlet;
#X obj 245 812 outlet;
#X floatatom 606 72 12 0 0 0 - - -;
#X obj 611 288 % 10;
#X floatatom 611 392 5 0 0 0 - - -;
#X floatatom 566 392 5 0 0 0 - - -;
#X obj 565 348 i;
#X obj 518 287 / 100;
#X floatatom 515 393 5 0 0 0 - - -;
#X obj 517 350 i;
#X obj 565 288 / 10;
#X obj 563 316 % 10;
#X floatatom 453 394 5 0 0 0 - - -;
#X obj 451 349 i;
#X obj 523 320 % 10;
#X obj 456 288 / 1000;
#X obj 447 320 % 10;
#X obj 136 474 pack i i i i i i i i, f 65;
#X floatatom 377 392 5 0 0 0 - - -;
#X obj 375 347 i;
#X obj 371 318 % 10;
#X obj 380 286 / 10000;
#X floatatom 300 390 5 0 0 0 - - -;
#X obj 298 345 i;
#X obj 294 316 % 10;
#X obj 303 284 / 100000;
#X floatatom 224 393 5 0 0 0 - - -;
#X obj 222 348 i;
#X obj 218 319 % 10;
#X floatatom 136 390 5 0 0 0 - - -;
#X obj 134 345 i;
#X obj 130 316 % 10;
#X obj 227 287 / 1e+006;
#X obj 139 284 / 1e+007;
#X obj 212 725 list split;
#X floatatom 756 347 5 0 0 0 - - -;
#X obj 756 274 /;
#X obj 756 230 log;
#X msg 799 191 10;
#X obj 799 228 log;
#X obj 756 151 t i b;
#X obj 756 314 i;
#X obj 756 406 - 8;
#X obj 756 447 abs;
#X floatatom 756 498 5 0 0 0 - - -;
#X obj 756 377 + 1;
#X obj 186 645 list;
#X obj 247 588 t b i;
#X obj 243 774 list;
#X connect 0 0 2 0;
#X connect 2 0 3 0;
#X connect 2 0 7 0;
#X connect 2 0 10 0;
#X connect 2 0 15 0;
#X connect 2 0 21 0;
#X connect 2 0 25 0;
#X connect 2 0 32 0;
#X connect 2 0 33 0;
#X connect 2 0 40 0;
#X connect 3 0 4 0;
#X connect 4 0 17 7;
#X connect 5 0 17 6;
#X connect 6 0 5 0;
#X connect 7 0 14 0;
#X connect 8 0 17 5;
#X connect 9 0 8 0;
#X connect 10 0 11 0;
#X connect 11 0 6 0;
#X connect 12 0 17 4;
#X connect 13 0 12 0;
#X connect 14 0 9 0;
#X connect 15 0 16 0;
#X connect 16 0 13 0;
#X connect 17 0 46 1;
#X connect 18 0 17 3;
#X connect 19 0 18 0;
#X connect 20 0 19 0;
#X connect 21 0 20 0;
#X connect 22 0 17 2;
#X connect 23 0 22 0;
#X connect 24 0 23 0;
#X connect 25 0 24 0;
#X connect 26 0 17 1;
#X connect 27 0 26 0;
#X connect 28 0 27 0;
#X connect 29 0 17 0;
#X connect 30 0 29 0;
#X connect 31 0 30 0;
#X connect 32 0 28 0;
#X connect 33 0 31 0;
#X connect 34 1 48 0;
#X connect 35 0 45 0;
#X connect 36 0 41 0;
#X connect 37 0 36 0;
#X connect 38 0 39 0;
#X connect 39 0 36 1;
#X connect 40 0 37 0;
#X connect 40 1 38 0;
#X connect 41 0 35 0;
#X connect 42 0 43 0;
#X connect 43 0 44 0;
#X connect 44 0 47 0;
#X connect 45 0 42 0;
#X connect 46 0 34 0;
#X connect 47 0 46 0;
#X connect 47 1 34 1;
#X connect 48 0 1 0;
#X restore 440 339 pd integer-processor;
#N canvas 240 188 608 776 symbol-processor 0;
#X obj 148 68 inlet;
#X obj 68 666 outlet;
#X obj 148 193 list fromsymbol;
#X obj 306 315 list tosymbol;
#X obj 415 315 list tosymbol;
#X obj 198 452 list;
#X obj 198 315 list tosymbol;
#X obj 67 287 list length;
#X obj 68 555 list split;
#X floatatom 135 379 5 0 0 0 - - -;
#X obj 198 255 unpack f f f f f f f f, f 109;
#X obj 523 315 list tosymbol;
#X obj 632 315 list tosymbol;
#X obj 849 315 list tosymbol;
#X obj 958 315 list tosymbol;
#X obj 740 315 list tosymbol;
#X obj 198 378 pack s s s s s s s s, f 109;
#X connect 0 0 2 0;
#X connect 2 0 7 0;
#X connect 2 0 10 0;
#X connect 3 0 16 1;
#X connect 4 0 16 2;
#X connect 5 0 8 0;
#X connect 6 0 16 0;
#X connect 7 0 9 0;
#X connect 8 0 1 0;
#X connect 9 0 8 1;
#X connect 10 0 6 0;
#X connect 10 1 3 0;
#X connect 10 2 4 0;
#X connect 10 3 11 0;
#X connect 10 4 12 0;
#X connect 10 5 15 0;
#X connect 10 6 13 0;
#X connect 10 7 14 0;
#X connect 11 0 16 3;
#X connect 12 0 16 4;
#X connect 13 0 16 6;
#X connect 14 0 16 7;
#X connect 15 0 16 5;
#X connect 16 0 5 0;
#X restore 296 339 pd symbol-processor;
#X obj 440 458 print THE-LIST;
#X text 435 66 epic symbol & ingteger to list;
#X obj 296 262 route symbol i;
#X obj 132 149 inlet, f 10;
#X obj 296 456 outlet, f 10;
#X connect 0 0 8 0;
#X connect 1 0 8 0;
#X connect 2 0 8 0;
#X connect 3 0 8 0;
#X connect 4 0 10 0;
#X connect 5 0 10 0;
#X connect 8 0 5 0;
#X connect 8 2 4 0;
#X connect 9 0 8 0;
#X restore 946 625 pd conv;
#X obj 974 577 list prepend;
#X msg 987 514 20FFF;
#X obj 1657 426 bng 15 250 50 0 empty empty empty 17 7 0 10 -262144
-1 -1;
#X floatatom 1651 458 5 0 0 0 - - -;
#X obj 1585 365 receive TASK2;
#X obj 1623 524 /;
#X floatatom 1623 567 5 0 0 0 - - -;
#X obj 1622 611 vsl 15 128 0 1 0 0 empty empty empty 0 -9 0 10 -262144
-1 -1 4208 1;
#X text 1433 774 IDLE;
#X text 1308 775 UNKNOWN;
#X text 1556 780 LED TICK + RENDER;
#X obj 1771 429 bng 15 250 50 0 empty empty empty 17 7 0 10 -262144
-1 -1;
#X floatatom 1765 461 5 0 0 0 - - -;
#X obj 1737 527 /;
#X floatatom 1737 570 5 0 0 0 - - -;
#X obj 1736 614 vsl 15 128 0 1 0 0 empty empty empty 0 -9 0 10 -262144
-1 -1 707 1;
#X obj 1699 368 receive TASK3;
#X text 1727 758 UI_IN;
#X connect 0 0 92 0;
#X connect 4 0 1 0;
#X connect 4 0 3 0;
#X connect 4 1 3 0;
#X connect 4 1 1 1;
#X connect 6 0 5 0;
#X connect 6 0 32 1;
#X connect 6 0 130 0;
#X connect 8 0 6 0;
#X connect 10 0 9 0;
#X connect 10 0 127 0;
#X connect 12 0 11 0;
#X connect 12 0 138 0;
#X connect 14 0 13 0;
#X connect 14 0 135 0;
#X connect 15 0 10 0;
#X connect 16 0 12 0;
#X connect 17 0 14 0;
#X connect 20 0 27 0;
#X connect 21 0 50 0;
#X connect 22 0 50 1;
#X connect 23 0 24 0;
#X connect 23 0 77 0;
#X connect 24 0 30 0;
#X connect 25 0 23 1;
#X connect 26 0 25 0;
#X connect 27 0 23 0;
#X connect 28 0 23 1;
#X connect 29 0 28 1;
#X connect 30 0 19 1;
#X connect 30 0 31 0;
#X connect 30 0 45 1;
#X connect 30 0 46 0;
#X connect 31 0 32 0;
#X connect 32 0 19 0;
#X connect 33 0 2 0;
#X connect 33 0 34 0;
#X connect 35 0 43 0;
#X connect 37 0 38 0;
#X connect 38 0 39 0;
#X connect 39 0 40 0;
#X connect 39 0 35 0;
#X connect 39 0 45 0;
#X connect 40 0 42 0;
#X connect 41 0 38 1;
#X connect 42 0 39 1;
#X connect 42 0 41 0;
#X connect 44 0 43 1;
#X connect 45 0 44 0;
#X connect 46 0 37 0;
#X connect 47 0 53 0;
#X connect 50 0 20 0;
#X connect 51 0 68 0;
#X connect 53 0 48 0;
#X connect 53 0 56 0;
#X connect 53 1 54 0;
#X connect 53 1 57 0;
#X connect 54 0 55 0;
#X connect 55 0 48 0;
#X connect 58 0 61 0;
#X connect 59 0 51 0;
#X connect 59 1 58 1;
#X connect 59 1 79 0;
#X connect 60 0 58 0;
#X connect 60 1 63 0;
#X connect 60 2 59 1;
#X connect 60 2 72 0;
#X connect 61 0 62 0;
#X connect 61 0 64 0;
#X connect 62 0 61 1;
#X connect 62 0 73 0;
#X connect 63 0 61 1;
#X connect 63 0 66 0;
#X connect 63 0 65 1;
#X connect 64 0 59 0;
#X connect 65 0 66 0;
#X connect 66 0 65 1;
#X connect 66 0 70 0;
#X connect 66 0 79 1;
#X connect 67 0 68 1;
#X connect 68 0 65 0;
#X connect 69 0 76 0;
#X connect 71 0 67 1;
#X connect 71 0 69 0;
#X connect 72 0 74 1;
#X connect 73 0 74 0;
#X connect 74 0 71 0;
#X connect 75 0 60 0;
#X connect 76 0 67 0;
#X connect 77 0 23 1;
#X connect 77 0 28 0;
#X connect 77 0 29 0;
#X connect 79 0 80 0;
#X connect 80 0 78 0;
#X connect 82 0 75 0;
#X connect 84 0 92 0;
#X connect 85 0 92 0;
#X connect 85 0 96 0;
#X connect 87 0 93 0;
#X connect 87 1 116 0;
#X connect 88 0 92 0;
#X connect 90 0 92 0;
#X connect 90 0 21 0;
#X connect 91 0 90 0;
#X connect 92 0 4 0;
#X connect 92 1 87 0;
#X connect 93 0 95 0;
#X connect 93 1 94 0;
#X connect 95 0 97 0;
#X connect 96 0 97 1;
#X connect 97 0 86 0;
#X connect 97 0 98 0;
#X connect 97 0 101 0;
#X connect 97 0 106 0;
#X connect 98 0 97 1;
#X connect 100 0 107 0;
#X connect 100 1 119 0;
#X connect 101 1 104 0;
#X connect 101 2 100 1;
#X connect 102 0 103 0;
#X connect 102 0 105 0;
#X connect 103 0 102 1;
#X connect 104 0 102 1;
#X connect 105 0 100 0;
#X connect 106 0 102 0;
#X connect 107 0 111 1;
#X connect 108 0 101 0;
#X connect 108 0 106 0;
#X connect 110 0 124 0;
#X connect 111 0 112 0;
#X connect 112 0 99 0;
#X connect 114 0 120 0;
#X connect 117 0 85 0;
#X connect 119 0 104 0;
#X connect 119 0 120 0;
#X connect 120 0 106 0;
#X connect 121 0 123 0;
#X connect 123 0 99 0;
#X connect 124 0 111 0;
#X connect 124 1 123 0;
#X connect 125 0 133 0;
#X connect 127 0 125 0;
#X connect 128 0 139 0;
#X connect 129 0 128 1;
#X connect 130 0 129 0;
#X connect 131 0 132 0;
#X connect 132 0 139 1;
#X connect 133 0 128 0;
#X connect 134 0 136 0;
#X connect 135 0 134 0;
#X connect 136 0 131 0;
#X connect 137 0 132 1;
#X connect 138 0 137 0;
#X connect 141 0 149 1;
#X connect 141 0 151 1;
#X connect 141 0 161 1;
#X connect 141 0 169 1;
#X connect 142 0 140 0;
#X connect 142 0 141 0;
#X connect 144 0 149 0;
#X connect 145 0 143 0;
#X connect 145 0 144 0;
#X connect 147 0 151 0;
#X connect 148 0 146 0;
#X connect 148 0 147 0;
#X connect 149 0 150 0;
#X connect 150 0 153 0;
#X connect 151 0 152 0;
#X connect 152 0 154 0;
#X connect 155 0 75 0;
#X connect 156 0 155 0;
#X connect 157 0 156 0;
#X connect 159 0 161 0;
#X connect 160 0 158 0;
#X connect 160 0 159 0;
#X connect 161 0 162 0;
#X connect 162 0 163 0;
#X connect 168 0 169 0;
#X connect 169 0 170 0;
#X connect 170 0 171 0;
#X connect 172 0 167 0;
#X connect 172 0 168 0;
