#N canvas 640 0 624 712 12;
#X obj 81 28 bng 15 250 50 0 empty empty empty 17 7 0 10 -262144 -1
-1;
#X obj 87 224 send;
#X obj 141 338 bng 15 250 50 0 empty empty empty 17 7 0 10 -262144
-1 -1;
#X obj 167 230 bng 15 250 50 0 empty empty empty 17 7 0 10 -262144
-1 -1;
#X obj 85 160 serial_print any;
#X obj 300 449 bng 15 250 50 0 empty empty empty 17 7 0 10 -262144
-1 -1;
#X floatatom 300 431 5 0 0 0 - - -;
#X obj 57 477 receive CPU;
#X obj 300 412 r AIN0;
#X obj 346 449 bng 15 250 50 0 empty empty empty 17 7 0 10 -262144
-1 -1;
#X floatatom 346 431 5 0 0 0 - - -;
#X obj 392 449 bng 15 250 50 0 empty empty empty 17 7 0 10 -262144
-1 -1;
#X floatatom 392 431 5 0 0 0 - - -;
#X obj 438 449 bng 15 250 50 0 empty empty empty 17 7 0 10 -262144
-1 -1;
#X floatatom 438 431 5 0 0 0 - - -;
#X obj 346 412 r AIN1;
#X obj 391 412 r AIN2;
#X obj 438 412 r AIN3, f 11;
#N canvas 0 50 450 250 (subpatch) 0;
#X array an0 100 float 1;
#A 0 32 32 32 32 32 32 32 32 32 32 32 32 32 32 32 32 32 32 32 32 32
32 32 32 32 32 32 32 32 32 32 32 32 32 32 32 32 32 32 32 32 32 32 32
32 32 32 32 32 32 32 32 32 32 32 32 32 32 32 32 32 32 32 32 32 32 32
32 32 32 32 32 32 32 32 32 32 32 32 32 32 32 32 32 32 32 32 32 32 32
32 32 32 32 32 32 32 32 32 32;
#X coords 0 255 100 0 200 140 1 0 0;
#X restore 293 491 graph;
#X obj 284 344 tabwrite an0;
#X obj 83 88 comport 26 115200;
#X obj 291 233 bng 15 250 50 0 empty empty empty 17 7 0 10 -262144
-1 -1;
#X obj 298 134 bng 15 250 50 0 empty empty empty 17 7 0 10 -262144
-1 -1;
#X obj 357 133 bng 15 250 50 0 empty empty empty 17 7 0 10 -262144
-1 -1;
#X obj 440 159 float;
#X floatatom 438 200 5 0 0 0 - - -;
#X obj 496 159 +;
#X floatatom 518 113 5 0 0 0 - - -;
#X msg 483 115 0;
#X obj 495 73 bng 15 250 50 0 empty empty empty 17 7 0 10 -262144 -1
-1;
#X obj 448 108 bng 15 250 50 0 empty empty empty 17 7 0 10 -262144
-1 -1;
#X obj 298 184 metro 100;
#X obj 490 212 %;
#X msg 515 188 100;
#X floatatom 418 283 5 0 0 0 - - -;
#X obj 319 271 bng 15 250 50 0 empty empty empty 17 7 0 10 -262144
-1 -1;
#X obj 290 307 float;
#X obj 69 277 receive LOOPTICK;
#X floatatom 135 370 5 0 0 0 - - -;
#X obj 61 696 tabread an0;
#N canvas 0 50 450 250 (subpatch) 0;
#X array an0_n 100 float 1;
#A 0 32 32 32 32 32 32 32 32 32 32 32 32 32 32 32 32 32 32 32 32 32
32 32 32 32 32 32 32 32 32 32 32 32 32 32 32 32 32 32 32 32 32 32 32
32 32 32 32 32 32 32 32 32 32 32 32 32 32 32 32 32 32 32 32 32 32 32
32 32 32 32 32 32 32 32 32 32 32 32 32 32 32 32 32 32 32 32 32 32 32
32 32 32 32 32 32 32 32 32 32;
#X coords 0 255 100 0 200 140 1 0 0;
#X restore 293 653 graph;
#X obj 189 445 until;
#X msg 64 557 100, f 4;
#X obj 64 601 until;
#X obj 64 629 f;
#X obj 102 629 + 1;
#X obj 147 628 sel 0;
#X obj 102 655 mod 100;
#X obj 54 746 tabwrite an0_n;
#X obj 170 713 mod 100;
#X obj 167 686 -;
#X obj 64 527 bng 15 250 50 0 empty empty empty 17 7 0 10 -262144 -1
-1;
#X connect 0 0 20 0;
#X connect 4 0 1 0;
#X connect 4 0 3 0;
#X connect 4 1 3 0;
#X connect 4 1 1 1;
#X connect 6 0 5 0;
#X connect 6 0 36 1;
#X connect 8 0 6 0;
#X connect 10 0 9 0;
#X connect 12 0 11 0;
#X connect 14 0 13 0;
#X connect 15 0 10 0;
#X connect 16 0 12 0;
#X connect 17 0 14 0;
#X connect 20 0 4 0;
#X connect 21 0 30 0;
#X connect 22 0 31 0;
#X connect 23 0 31 1;
#X connect 24 0 25 0;
#X connect 24 0 26 0;
#X connect 25 0 34 0;
#X connect 26 0 24 1;
#X connect 26 0 32 0;
#X connect 26 0 33 0;
#X connect 27 0 26 1;
#X connect 28 0 24 1;
#X connect 29 0 28 0;
#X connect 29 0 27 0;
#X connect 30 0 24 0;
#X connect 31 0 21 0;
#X connect 32 0 24 1;
#X connect 33 0 32 1;
#X connect 34 0 19 1;
#X connect 34 0 35 0;
#X connect 34 0 50 1;
#X connect 34 0 51 0;
#X connect 35 0 36 0;
#X connect 36 0 19 0;
#X connect 37 0 2 0;
#X connect 37 0 38 0;
#X connect 39 0 48 0;
#X connect 42 0 43 0;
#X connect 43 0 44 0;
#X connect 44 0 45 0;
#X connect 44 0 39 0;
#X connect 44 0 50 0;
#X connect 45 0 47 0;
#X connect 46 0 43 1;
#X connect 47 0 44 1;
#X connect 47 0 46 0;
#X connect 49 0 48 1;
#X connect 50 0 49 0;
#X connect 51 0 42 0;
