#N canvas -8 -8 1920 1008 12;
#X obj 80 21 bng 15 250 50 0 empty empty empty 17 7 0 10 -262144 -1
-1;
#X obj 56 399 send;
#X obj 1241 387 bng 15 250 50 0 empty empty empty 17 7 0 10 -262144
-1 -1;
#X obj 136 405 bng 15 250 50 0 empty empty empty 17 7 0 10 -262144
-1 -1;
#X obj 60 201 serial_print any;
#X obj 300 998 bng 15 250 50 0 empty empty empty 17 7 0 10 -262144
-1 -1;
#X floatatom 300 980 5 0 0 0 - - -;
#X obj 57 477 receive CPU;
#X obj 346 998 bng 15 250 50 0 empty empty empty 17 7 0 10 -262144
-1 -1;
#X floatatom 346 980 5 0 0 0 - - -;
#X obj 392 998 bng 15 250 50 0 empty empty empty 17 7 0 10 -262144
-1 -1;
#X floatatom 392 980 5 0 0 0 - - -;
#X obj 438 998 bng 15 250 50 0 empty empty empty 17 7 0 10 -262144
-1 -1;
#X floatatom 438 980 5 0 0 0 - - -;
#X obj 346 885 r AIN1;
#X obj 391 885 r AIN2;
#X obj 438 885 r AIN3, f 11;
#N canvas 0 50 450 250 (subpatch) 0;
#X array an0 100 float 1;
#A 0 255 255 255 255 255 255 255 255 255 255 255 255 255 255 255 255
255 255 255 255 255 255 255 255 255 255 255 255 255 255 255 255 255
255 255 255 255 255 255 255 255 255 255 255 255 255 255 255 255 255
255 255 255 255 255 255 255 255 255 255 255 255 255 255 255 255 255
255 255 255 255 255 255 255 255 255 255 255 255 255 255 255 255 255
255 255 255 255 255 255 255 255 255 255 255 255 255 255 255 255;
#X coords 0 255 100 0 200 140 1 0 0;
#X restore 312 1161 graph;
#X obj 303 773 tabwrite an0;
#X obj 310 662 bng 15 250 50 0 empty empty empty 17 7 0 10 -262144
-1 -1;
#X obj 314 588 bng 15 250 50 0 empty empty empty 17 7 0 10 -262144
-1 -1;
#X obj 376 562 bng 15 250 50 0 empty empty empty 17 7 0 10 -262144
-1 -1;
#X obj 440 665 float;
#X floatatom 438 706 5 0 0 0 - - -;
#X msg 483 621 0;
#X obj 495 579 bng 15 250 50 0 empty empty empty 17 7 0 10 -262144
-1 -1;
#X obj 448 614 bng 15 250 50 0 empty empty empty 17 7 0 10 -262144
-1 -1;
#X obj 490 718 %;
#X msg 515 694 100;
#X floatatom 400 732 5 0 0 0 - - -;
#X obj 338 700 bng 15 250 50 0 empty empty empty 17 7 0 10 -262144
-1 -1;
#X obj 294 742 float;
#X obj 1169 326 receive LOOPTICK;
#X floatatom 1235 419 5 0 0 0 - - -;
#X obj 61 696 tabread an0;
#N canvas 0 50 450 250 (subpatch) 0;
#X array an0_n 100 float 1;
#A 0 255 255 255 255 255 255 255 255 255 255 255 255 255 255 255 255
255 255 255 255 255 255 255 255 255 255 255 255 255 255 255 255 255
255 255 255 255 255 255 255 255 255 255 255 255 255 255 255 255 255
255 255 255 255 255 255 255 255 255 255 255 255 255 255 255 255 255
255 255 255 255 255 255 255 255 255 255 255 255 255 255 255 255 255
255 255 255 255 255 255 255 255 255 255 255 255 255 255 255 255;
#X coords 0 255 100 0 200 140 1 0 0;
#X restore 312 1323 graph;
#X msg 64 557 100, f 4;
#X obj 64 601 until;
#X obj 64 629 f;
#X obj 102 629 + 1;
#X obj 147 628 sel 0;
#X obj 102 655 mod 100;
#X obj 54 746 tabwrite an0_n;
#X obj 170 713 mod 100;
#X obj 167 686 -;
#X obj 64 527 bng 15 250 50 0 empty empty empty 17 7 0 10 -262144 -1
-1;
#X obj 708 265 receive HEXTEST;
#X obj 695 443 print;
#X msg 779 295 1 2;
#X obj 317 613 metro 50;
#X msg 894 324 f f;
#X obj 715 335 route float;
#X obj 785 388 list prepend symbol;
#X obj 785 410 list trim;
#X obj 733 376 bng 15 250 50 0 empty empty empty 17 7 0 10 -262144
-1 -1;
#X obj 826 347 bng 15 250 50 0 empty empty empty 17 7 0 10 -262144
-1 -1;
#X obj 496 665 + 1;
#X floatatom 887 953 5 0 0 0 - - -;
#X msg 106 19 devices;
#X msg 187 19 ports;
#X obj 236 314 print Com settings;
#X obj 178 121 route ports;
#X msg 249 17 close;
#X text 288 16 Close Serial port;
#X msg 309 54 open \$1;
#X msg 448 21 3;
#X obj 83 88 comport;
#X obj 226 156 unpack 0 s;
#X symbolatom 293 186 10 0 0 0 - - -;
#X floatatom 231 190 5 0 0 0 - - -;
#X obj 291 214 bng 15 250 50 0 empty empty empty 17 7 0 10 -262144
-1 -1;
#X obj 236 239 list prepend;
#X obj 342 240 t l;
#X obj 448 322 list store;
#X obj 461 206 t b b l;
#X obj 435 264 f;
#X obj 473 265 + 1;
#X msg 472 232 0, f 2;
#X msg 434 293 get \$1 1;
#X obj 433 229 bng 15 250 50 0 empty empty empty 17 7 0 10 -262144
-1 -1;
#X floatatom 465 404 5 0 0 0 - - -;
#X msg 554 145 3 4 26 27 29;
#X text 430 404 Port;
#X obj 466 430 bng 15 250 50 0 empty empty empty 17 7 0 10 -262144
-1 -1;
#X obj 488 429 f;
#X msg 518 429 open \$1;
#X text 430 429 Open;
#X obj 466 382 bng 15 250 50 0 empty empty empty 17 7 0 10 -262144
-1 -1;
#X text 429 381 Next;
#X obj 327 118 bng 15 250 50 0 empty empty empty 17 7 0 10 -262144
-1 -1;
#X obj 465 360 bng 15 250 50 0 empty empty empty 17 7 0 10 -262144
-1 -1;
#X text 405 359 Refresh;
#X obj 529 354 bng 15 250 50 0 empty empty empty 17 7 0 10 -262144
-1 -1;
#X obj 524 372 bng 15 250 50 0 empty empty empty 17 7 0 10 -262144
-1 -1;
#X obj 466 450 bng 15 250 50 0 empty empty empty 17 7 0 10 -262144
-1 -1;
#X text 423 449 Close;
#X msg 548 452 close;
#X obj 497 453 t b b;
#X obj 1163 456 bng 15 250 50 0 empty empty empty 17 7 0 10 -262144
-1 -1;
#X floatatom 1157 488 5 0 0 0 - - -;
#X obj 1091 395 receive REALTIME;
#X obj 1503 376 bng 15 250 50 0 empty empty empty 17 7 0 10 -262144
-1 -1;
#X floatatom 1432 460 5 0 0 0 - - -;
#X obj 1431 315 receive TASK0;
#X obj 1609 375 bng 15 250 50 0 empty empty empty 17 7 0 10 -262144
-1 -1;
#X floatatom 1538 459 5 0 0 0 - - -;
#X obj 1537 314 receive TASK1;
#X obj 1326 527 /;
#X floatatom 1326 570 5 0 0 0 - - -;
#X obj 1443 524 /;
#X floatatom 1443 567 5 0 0 0 - - -;
#X obj 1325 606 vsl 15 128 0 1 0 0 empty empty empty 0 -9 0 10 -262144
-1 -1 774 1;
#X obj 1442 611 vsl 15 128 0 1 0 0 empty empty empty 0 -9 0 10 -262144
-1 -1 5294 1;
#X obj 1722 374 bng 15 250 50 0 empty empty empty 17 7 0 10 -262144
-1 -1;
#X floatatom 1651 458 5 0 0 0 - - -;
#X obj 1650 313 receive TASK2;
#X obj 1623 524 /;
#X floatatom 1623 567 5 0 0 0 - - -;
#X obj 1622 611 vsl 15 128 0 1 0 0 empty empty empty 0 -9 0 10 -262144
-1 -1 4570 1;
#X text 1433 774 IDLE;
#X text 1308 775 UNKNOWN;
#X text 1556 780 LED TICK + RENDER;
#X obj 1836 377 bng 15 250 50 0 empty empty empty 17 7 0 10 -262144
-1 -1;
#X floatatom 1765 461 5 0 0 0 - - -;
#X obj 1737 527 /;
#X floatatom 1737 570 5 0 0 0 - - -;
#X obj 1736 614 vsl 15 128 0 1 0 0 empty empty empty 0 -9 0 10 -262144
-1 -1 2062 1;
#X obj 1764 316 receive TASK3;
#X text 1727 758 UI_IN;
#X obj 568 512 s COM;
#X obj 16 48 r COM;
#X obj 887 887 r AIN3, f 11;
#N canvas 0 0 944 992 sprint 0;
#X obj 47 120 inlet;
#X text 406 513 written by Alexandros Drymonitis;
#X obj 47 142 sel 10 13;
#X obj 205 112 inlet delimiter;
#X obj 421 391 outlet symbol;
#X obj 70 514 outlet list;
#N canvas 64 299 639 403 \$0-set_argument 0;
#X obj 24 7 loadbang;
#X obj 24 245 symbol \$1;
#X obj 24 269 sel tab space comma any;
#X obj 84 53 inlet;
#X obj 372 46 symbol \$2;
#X obj 24 29 t b b;
#X obj 298 204 list append;
#X msg 372 91 9;
#X msg 415 91 32;
#X obj 372 69 sel tab space comma;
#X msg 458 91 44;
#X msg 24 301 9;
#X msg 63 301 32;
#X msg 103 301 44;
#X msg 142 301 9 32 44;
#X msg 502 91 0;
#X obj 250 120 t b s;
#X obj 193 98 route bang;
#X obj 193 120 t b b;
#X text 189 138 if we provide one symbol only \, clear [list append]
first;
#X obj 298 273 outlet arg_list;
#X obj 379 248 outlet num_args;
#N canvas 675 248 516 378 drip_list 0;
#X obj 69 60 until;
#X obj 69 82 list;
#X obj 69 104 list split 1;
#X obj 69 14 inlet;
#X obj 69 126 sel 0;
#X obj 218 121 t b b;
#X obj 101 149 t b f;
#X obj 101 193 f;
#X obj 131 193 + 1;
#X obj 101 215 t f f;
#X obj 218 212 f;
#X obj 101 237 pack;
#X obj 69 36 t b l b;
#X msg 119 171 1;
#X text 59 299 force a zero as the second argument if only one symbol
is given via argument \, and exclude it from the list;
#X obj 101 259 outlet arg_list;
#X obj 218 234 outlet num_args;
#X connect 0 0 1 0;
#X connect 1 0 2 0;
#X connect 2 0 4 0;
#X connect 2 1 1 1;
#X connect 2 2 5 0;
#X connect 3 0 12 0;
#X connect 4 1 6 0;
#X connect 5 0 10 0;
#X connect 5 1 0 1;
#X connect 6 0 7 0;
#X connect 6 1 11 1;
#X connect 7 0 8 0;
#X connect 7 0 9 0;
#X connect 8 0 7 1;
#X connect 9 0 11 0;
#X connect 9 1 10 1;
#X connect 10 0 16 0;
#X connect 11 0 15 0;
#X connect 12 0 0 0;
#X connect 12 1 1 1;
#X connect 12 2 13 0;
#X connect 13 0 7 1;
#X restore 298 227 pd drip_list;
#N canvas 444 92 736 575 split_symbols 0;
#X obj 34 24 inlet;
#X obj 126 108 until;
#X obj 126 130 list;
#X obj 126 152 list split 1;
#X obj 126 214 sel 32;
#X obj 251 231 list prepend;
#X obj 251 253 t l l;
#X obj 126 236 t b b;
#X obj 230 276 list;
#X obj 230 298 list tosymbol;
#X obj 34 47 list fromsymbol;
#X obj 230 371 f;
#X obj 258 371 + 1;
#X msg 245 350 0;
#X obj 126 86 t b l b b;
#X obj 230 427 pack f s;
#X obj 230 326 t b s;
#X obj 230 521 outlet;
#X obj 312 505 outlet;
#X obj 230 449 route 0 1;
#X obj 230 499 symbol;
#X obj 260 472 symbol;
#X obj 207 173 t b b b;
#X obj 312 472 spigot;
#X obj 351 450 == 0;
#X obj 230 393 t f f;
#X obj 34 69 route bang;
#X msg 34 91 97 110 121;
#X text 153 46 if we receive an empty symbol \, we'll force the list
of the symbol "any";
#X text 173 211 we use space to split the two symbols;
#X text 340 232 every time we output one symbol \, clear this list
;
#X text 359 472 if we provide one symbol only \, send a bang out this
outet;
#X text 263 151 if only one symbol is received (hence \, no space)
\, bang the right outlet of this subpatch explicitly \, so the symbol
can pass;
#X connect 0 0 10 0;
#X connect 1 0 2 0;
#X connect 2 0 3 0;
#X connect 3 0 4 0;
#X connect 3 1 2 1;
#X connect 3 2 22 0;
#X connect 4 0 7 0;
#X connect 4 1 5 0;
#X connect 5 0 6 0;
#X connect 6 0 8 1;
#X connect 6 1 5 1;
#X connect 7 0 8 0;
#X connect 7 1 5 1;
#X connect 8 0 9 0;
#X connect 9 0 16 0;
#X connect 10 0 26 0;
#X connect 11 0 12 0;
#X connect 11 0 25 0;
#X connect 12 0 11 1;
#X connect 13 0 11 1;
#X connect 14 0 1 0;
#X connect 14 1 2 1;
#X connect 14 2 13 0;
#X connect 14 3 5 1;
#X connect 15 0 19 0;
#X connect 16 0 11 0;
#X connect 16 1 15 1;
#X connect 19 0 20 0;
#X connect 19 1 21 0;
#X connect 20 0 17 0;
#X connect 21 0 18 0;
#X connect 22 0 23 0;
#X connect 22 1 8 0;
#X connect 22 2 1 1;
#X connect 23 0 18 0;
#X connect 24 0 23 1;
#X connect 25 0 15 0;
#X connect 25 1 24 0;
#X connect 26 0 27 0;
#X connect 26 1 14 0;
#X connect 27 0 14 0;
#X restore 84 76 pd split_symbols;
#X connect 0 0 5 0;
#X connect 1 0 2 0;
#X connect 2 0 11 0;
#X connect 2 1 12 0;
#X connect 2 2 13 0;
#X connect 2 3 14 0;
#X connect 2 4 14 0;
#X connect 3 0 23 0;
#X connect 4 0 9 0;
#X connect 5 0 1 0;
#X connect 5 1 4 0;
#X connect 6 0 22 0;
#X connect 7 0 6 1;
#X connect 8 0 6 1;
#X connect 9 0 7 0;
#X connect 9 1 8 0;
#X connect 9 2 10 0;
#X connect 9 3 15 0;
#X connect 10 0 6 1;
#X connect 11 0 6 0;
#X connect 12 0 6 0;
#X connect 13 0 6 0;
#X connect 14 0 6 0;
#X connect 15 0 6 1;
#X connect 16 0 1 0;
#X connect 16 1 4 0;
#X connect 17 0 18 0;
#X connect 17 1 16 0;
#X connect 18 0 1 0;
#X connect 18 1 6 1;
#X connect 22 0 20 0;
#X connect 22 1 21 0;
#X connect 23 0 1 1;
#X connect 23 1 17 0;
#X restore 205 134 pd \$0-set_argument;
#X text 40 20 to be used with [comport] for utilising Arduinos' Serial.print()
and Serial.println() functions;
#X obj 109 455 list;
#N canvas 568 257 844 263 delimiter 0;
#X obj 38 176 outlet bang;
#X obj 38 32 inlet;
#X obj 38 56 sel;
#X obj 56 79 sel;
#X obj 74 101 sel;
#X obj 91 39 route 1 2 3;
#X obj 305 34 swap 3;
#X obj 305 56 -;
#X obj 305 78 t f b;
#X obj 305 100 until;
#X obj 305 144 f;
#X obj 335 144 - 1;
#X msg 323 122 3;
#X obj 305 166 pack f 256;
#X text 361 61 set 256 to [sel]s that are not used (if we provide one
or two arguments \, for example) \, cause this number will never go
through [comport] (it's 8-bits plus 1);
#X obj 129 118 outlet through;
#X obj 91 17 inlet arg_list;
#X obj 305 12 inlet num_args;
#X connect 1 0 2 0;
#X connect 2 0 0 0;
#X connect 2 1 3 0;
#X connect 3 0 0 0;
#X connect 3 1 4 0;
#X connect 4 0 0 0;
#X connect 4 1 15 0;
#X connect 5 0 2 1;
#X connect 5 1 3 1;
#X connect 5 2 4 1;
#X connect 6 0 7 0;
#X connect 6 1 7 1;
#X connect 7 0 8 0;
#X connect 8 0 9 0;
#X connect 8 1 12 0;
#X connect 9 0 10 0;
#X connect 10 0 11 0;
#X connect 10 0 13 0;
#X connect 11 0 10 1;
#X connect 12 0 10 1;
#X connect 13 0 5 0;
#X connect 16 0 5 0;
#X connect 17 0 6 0;
#X restore 165 159 pd delimiter;
#N canvas 87 62 854 599 \$0-assemble_strings 0;
#X obj 223 83 inlet;
#X obj 131 412 list tosymbol;
#X obj 231 313 t l l;
#X obj 231 291 list prepend;
#X obj 75 133 inlet bang;
#X obj 163 520 outlet;
#X text 90 20 upper and lower case letters \, plus underscore and hyphen
symbols go through. if some delimiters are ommited \, they will go
through too;
#X obj 131 330 list;
#X obj 23 323 inlet counter;
#X obj 23 429 pack f s;
#X obj 23 520 outlet;
#X obj 23 451 route 1 0;
#X obj 163 493 symbol;
#N canvas 155 167 262 222 bang_once 0;
#X obj 64 91 inlet;
#X obj 64 113 spigot;
#X obj 64 135 t b b;
#X msg 117 96 0;
#X obj 64 157 outlet;
#X obj 103 45 inlet reset;
#X msg 103 67 1;
#X connect 0 0 1 0;
#X connect 1 0 2 0;
#X connect 2 0 4 0;
#X connect 2 1 3 0;
#X connect 3 0 1 1;
#X connect 5 0 6 0;
#X connect 6 0 1 1;
#X restore 434 282 pd bang_once;
#X msg 558 309 0;
#X obj 90 520 outlet;
#X obj 231 169 moses 48;
#X obj 304 186 moses 58;
#X obj 353 51 r \$0-digits;
#X msg 353 73 0;
#X text 382 73 if numbers start coming in \, close [spigot];
#X obj 434 391 s \$0-symbol;
#X text 433 412 if symbols start coming in \, close number's [spigot]
;
#X obj 535 265 t b b b;
#X obj 353 95 t f f;
#X msg 600 282 1;
#X obj 600 364 t f f;
#X obj 535 243 r \$0-delimit;
#X obj 336 326 f;
#X obj 354 303 r \$0-hyphen;
#X obj 336 348 sel 0;
#X obj 231 265 t f b b;
#X obj 304 247 t f b;
#X obj 80 164 t b b;
#X obj 23 479 route bang;
#X obj 23 381 spigot 1;
#X connect 0 0 16 0;
#X connect 1 0 9 1;
#X connect 2 0 7 1;
#X connect 2 1 3 1;
#X connect 3 0 2 0;
#X connect 4 0 33 0;
#X connect 7 0 1 0;
#X connect 8 0 9 0;
#X connect 9 0 11 0;
#X connect 11 0 34 0;
#X connect 11 1 12 0;
#X connect 12 0 5 0;
#X connect 13 0 21 0;
#X connect 14 0 28 1;
#X connect 16 0 31 0;
#X connect 16 1 17 0;
#X connect 17 0 32 0;
#X connect 17 1 31 0;
#X connect 18 0 19 0;
#X connect 19 0 24 0;
#X connect 23 0 13 1;
#X connect 23 1 14 0;
#X connect 23 2 25 0;
#X connect 24 1 35 1;
#X connect 25 0 26 0;
#X connect 26 0 35 1;
#X connect 27 0 23 0;
#X connect 28 0 30 0;
#X connect 29 0 28 1;
#X connect 30 1 3 0;
#X connect 31 0 3 0;
#X connect 31 1 28 0;
#X connect 31 2 13 0;
#X connect 32 0 3 0;
#X connect 32 1 28 0;
#X connect 33 0 7 0;
#X connect 33 1 3 1;
#X connect 34 0 10 0;
#X connect 34 1 15 0;
#X restore 183 333 pd \$0-assemble_strings;
#N canvas 87 82 481 287 \$0-count 0;
#X obj 45 145 f;
#X obj 75 145 + 1;
#X msg 63 122 0;
#X obj 45 169 > 0;
#X obj 45 74 inlet;
#X obj 45 196 outlet;
#X obj 63 99 r \$0-done;
#X text 49 23 this is used in case a delimiter is followed by a symbol
\, so the two (or more) symbols can be diffused properly;
#X connect 0 0 1 0;
#X connect 0 0 3 0;
#X connect 1 0 0 1;
#X connect 2 0 0 1;
#X connect 3 0 5 0;
#X connect 4 0 0 0;
#X connect 6 0 2 0;
#X restore 185 302 pd \$0-count;
#X obj 165 252 t b b b b;
#X obj 165 275 s \$0-delimit;
#X obj 47 259 s \$0-done;
#X obj 297 176 sel 45;
#X msg 297 198 45;
#X obj 297 220 s \$0-hyphen;
#X obj 336 276 t f f;
#X obj 47 235 t b b b;
#X obj 389 368 t b s;
#X obj 109 477 route bang;
#X obj 212 416 list prepend;
#X obj 212 438 t l l;
#X obj 318 403 r \$0-done;
#X obj 134 431 r \$0-done;
#X obj 70 303 t b b;
#N canvas 1 82 353 268 got_bang 0;
#X obj 89 97 inlet;
#X obj 89 119 spigot;
#X obj 89 141 outlet;
#X obj 204 80 inlet;
#X msg 204 102 1;
#X obj 128 49 r \$0-done;
#X msg 128 71 0;
#X connect 0 0 1 0;
#X connect 1 0 2 0;
#X connect 3 0 4 0;
#X connect 4 0 1 1;
#X connect 5 0 6 0;
#X connect 6 0 1 1;
#X restore 70 346 pd got_bang;
#X text 38 61 space \, comma \, and tab function as delimiters by default
\, which can be set explicitly via arguments;
#X connect 0 0 2 0;
#X connect 2 0 19 0;
#X connect 2 2 9 0;
#X connect 3 0 6 0;
#X connect 6 0 9 1;
#X connect 6 1 9 2;
#X connect 8 0 21 0;
#X connect 9 0 12 0;
#X connect 9 1 15 0;
#X connect 10 0 27 1;
#X connect 10 1 22 0;
#X connect 10 2 20 0;
#X connect 11 0 10 0;
#X connect 12 0 13 0;
#X connect 12 1 11 0;
#X connect 12 3 10 1;
#X connect 15 0 16 0;
#X connect 15 1 18 0;
#X connect 16 0 17 0;
#X connect 18 0 10 2;
#X connect 19 0 14 0;
#X connect 19 1 26 0;
#X connect 19 2 12 0;
#X connect 20 0 22 1;
#X connect 20 1 4 0;
#X connect 21 1 5 0;
#X connect 22 0 23 0;
#X connect 23 0 8 1;
#X connect 23 1 22 1;
#X connect 24 0 22 1;
#X connect 25 0 8 1;
#X connect 26 0 27 0;
#X connect 26 1 8 0;
#X connect 27 0 5 0;
#X restore 100 287 pd sprint;
#N canvas -8 -8 1920 1008 HexToDec 0;
#X obj 440 470 easyflow/hexCharToDec;
#X obj 343 336 until;
#X obj 361 420 list store;
#X obj 369 303 t b b l;
#X obj 343 361 f;
#X obj 381 362 + 1;
#X msg 395 336 0, f 2;
#X msg 342 390 get \$1 1;
#X obj 324 627 +;
#X obj 367 633 f;
#X obj 293 565 pow;
#X obj 312 596 *;
#X obj 274 492 bng 15 250 50 0 empty empty empty 17 7 0 10 -262144
-1 -1;
#X floatatom 348 662 5 0 0 0 - - -;
#X floatatom 325 528 5 0 0 0 - - -;
#X obj 347 465 list length;
#X obj 297 456 * -1;
#X obj 327 496 +;
#X obj 369 274 list;
#X obj 283 535 16;
#X obj 394 665 f;
#X floatatom 396 694 5 0 0 0 - - -;
#X obj 436 304 print;
#X msg 311 215 9 f 2;
#N canvas 260 299 450 385 conv 0;
#X msg 215 106 symbol f2g;
#X msg 296 71 symbol 2f4d;
#X msg 362 133 symbol fffffggg;
#X floatatom 441 192 12 0 0 0 - - -;
#N canvas -8 -8 1920 1008 integer-processor 0;
#X obj 607 31 inlet;
#X obj 245 812 outlet;
#X floatatom 606 72 12 0 0 0 - - -;
#X obj 611 288 % 10;
#X floatatom 611 392 5 0 0 0 - - -;
#X floatatom 566 392 5 0 0 0 - - -;
#X obj 565 348 i;
#X obj 518 287 / 100;
#X floatatom 515 393 5 0 0 0 - - -;
#X obj 517 350 i;
#X obj 565 288 / 10;
#X obj 563 316 % 10;
#X floatatom 453 394 5 0 0 0 - - -;
#X obj 451 349 i;
#X obj 523 320 % 10;
#X obj 456 288 / 1000;
#X obj 447 320 % 10;
#X obj 136 474 pack i i i i i i i i, f 65;
#X floatatom 377 392 5 0 0 0 - - -;
#X obj 375 347 i;
#X obj 371 318 % 10;
#X obj 380 286 / 10000;
#X floatatom 300 390 5 0 0 0 - - -;
#X obj 298 345 i;
#X obj 294 316 % 10;
#X obj 303 284 / 100000;
#X floatatom 224 393 5 0 0 0 - - -;
#X obj 222 348 i;
#X obj 218 319 % 10;
#X floatatom 136 390 5 0 0 0 - - -;
#X obj 134 345 i;
#X obj 130 316 % 10;
#X obj 227 287 / 1e+006;
#X obj 139 284 / 1e+007;
#X obj 212 725 list split;
#X floatatom 756 347 5 0 0 0 - - -;
#X obj 756 274 /;
#X obj 756 230 log;
#X msg 799 191 10;
#X obj 799 228 log;
#X obj 756 151 t i b;
#X obj 756 314 i;
#X obj 756 406 - 8;
#X obj 756 447 abs;
#X floatatom 756 498 5 0 0 0 - - -;
#X obj 756 377 + 1;
#X obj 186 645 list;
#X obj 247 588 t b i;
#X obj 243 774 list;
#X connect 0 0 2 0;
#X connect 2 0 3 0;
#X connect 2 0 7 0;
#X connect 2 0 10 0;
#X connect 2 0 15 0;
#X connect 2 0 21 0;
#X connect 2 0 25 0;
#X connect 2 0 32 0;
#X connect 2 0 33 0;
#X connect 2 0 40 0;
#X connect 3 0 4 0;
#X connect 4 0 17 7;
#X connect 5 0 17 6;
#X connect 6 0 5 0;
#X connect 7 0 14 0;
#X connect 8 0 17 5;
#X connect 9 0 8 0;
#X connect 10 0 11 0;
#X connect 11 0 6 0;
#X connect 12 0 17 4;
#X connect 13 0 12 0;
#X connect 14 0 9 0;
#X connect 15 0 16 0;
#X connect 16 0 13 0;
#X connect 17 0 46 1;
#X connect 18 0 17 3;
#X connect 19 0 18 0;
#X connect 20 0 19 0;
#X connect 21 0 20 0;
#X connect 22 0 17 2;
#X connect 23 0 22 0;
#X connect 24 0 23 0;
#X connect 25 0 24 0;
#X connect 26 0 17 1;
#X connect 27 0 26 0;
#X connect 28 0 27 0;
#X connect 29 0 17 0;
#X connect 30 0 29 0;
#X connect 31 0 30 0;
#X connect 32 0 28 0;
#X connect 33 0 31 0;
#X connect 34 1 48 0;
#X connect 35 0 45 0;
#X connect 36 0 41 0;
#X connect 37 0 36 0;
#X connect 38 0 39 0;
#X connect 39 0 36 1;
#X connect 40 0 37 0;
#X connect 40 1 38 0;
#X connect 41 0 35 0;
#X connect 42 0 43 0;
#X connect 43 0 44 0;
#X connect 44 0 47 0;
#X connect 45 0 42 0;
#X connect 46 0 34 0;
#X connect 47 0 46 0;
#X connect 47 1 34 1;
#X connect 48 0 1 0;
#X restore 440 339 pd integer-processor;
#N canvas 240 188 608 776 symbol-processor 0;
#X obj 148 68 inlet;
#X obj 68 666 outlet;
#X obj 148 193 list fromsymbol;
#X obj 306 315 list tosymbol;
#X obj 415 315 list tosymbol;
#X obj 198 452 list;
#X obj 198 315 list tosymbol;
#X obj 67 287 list length;
#X obj 68 555 list split;
#X floatatom 135 379 5 0 0 0 - - -;
#X obj 198 255 unpack f f f f f f f f, f 109;
#X obj 523 315 list tosymbol;
#X obj 632 315 list tosymbol;
#X obj 849 315 list tosymbol;
#X obj 958 315 list tosymbol;
#X obj 740 315 list tosymbol;
#X obj 198 378 pack s s s s s s s s, f 109;
#X connect 0 0 2 0;
#X connect 2 0 7 0;
#X connect 2 0 10 0;
#X connect 3 0 16 1;
#X connect 4 0 16 2;
#X connect 5 0 8 0;
#X connect 6 0 16 0;
#X connect 7 0 9 0;
#X connect 8 0 1 0;
#X connect 9 0 8 1;
#X connect 10 0 6 0;
#X connect 10 1 3 0;
#X connect 10 2 4 0;
#X connect 10 3 11 0;
#X connect 10 4 12 0;
#X connect 10 5 15 0;
#X connect 10 6 13 0;
#X connect 10 7 14 0;
#X connect 11 0 16 3;
#X connect 12 0 16 4;
#X connect 13 0 16 6;
#X connect 14 0 16 7;
#X connect 15 0 16 5;
#X connect 16 0 5 0;
#X restore 296 339 pd symbol-processor;
#X obj 440 458 print THE-LIST;
#X text 435 66 epic symbol & ingteger to list;
#X obj 296 262 route symbol i;
#X obj 132 149 inlet, f 10;
#X obj 296 456 outlet, f 10;
#X connect 0 0 8 0;
#X connect 1 0 8 0;
#X connect 2 0 8 0;
#X connect 3 0 8 0;
#X connect 4 0 10 0;
#X connect 5 0 10 0;
#X connect 8 0 5 0;
#X connect 8 2 4 0;
#X connect 9 0 8 0;
#X restore 473 217 pd conv;
#X obj 501 169 list prepend;
#X obj 856 459 inlet;
#X obj 854 572 outlet;
#X connect 0 0 11 0;
#X connect 1 0 4 0;
#X connect 2 0 0 0;
#X connect 2 1 1 1;
#X connect 2 1 20 0;
#X connect 3 0 1 0;
#X connect 3 1 6 0;
#X connect 3 2 2 1;
#X connect 3 2 15 0;
#X connect 4 0 5 0;
#X connect 4 0 7 0;
#X connect 5 0 4 1;
#X connect 5 0 16 0;
#X connect 6 0 4 1;
#X connect 6 0 9 0;
#X connect 6 0 8 1;
#X connect 7 0 2 0;
#X connect 8 0 9 0;
#X connect 9 0 8 1;
#X connect 9 0 13 0;
#X connect 9 0 20 1;
#X connect 10 0 11 1;
#X connect 11 0 8 0;
#X connect 12 0 19 0;
#X connect 14 0 10 1;
#X connect 14 0 12 0;
#X connect 15 0 17 1;
#X connect 16 0 17 0;
#X connect 17 0 14 0;
#X connect 18 0 3 0;
#X connect 19 0 10 0;
#X connect 20 0 21 0;
#X connect 21 0 27 0;
#X connect 23 0 18 0;
#X connect 24 0 18 0;
#X connect 25 0 24 0;
#X connect 26 0 25 0;
#X restore 887 921 pd HexToDec;
#N canvas -8 -8 1920 1008 HexToDec 0;
#X obj 440 470 easyflow/hexCharToDec;
#X obj 343 336 until;
#X obj 361 420 list store;
#X obj 369 303 t b b l;
#X obj 343 361 f;
#X obj 381 362 + 1;
#X msg 395 336 0, f 2;
#X msg 342 390 get \$1 1;
#X obj 324 627 +;
#X obj 367 633 f;
#X obj 293 565 pow;
#X obj 312 596 *;
#X obj 274 492 bng 15 250 50 0 empty empty empty 17 7 0 10 -262144
-1 -1;
#X floatatom 348 662 5 0 0 0 - - -;
#X floatatom 325 528 5 0 0 0 - - -;
#X obj 347 465 list length;
#X obj 297 456 * -1;
#X obj 327 496 +;
#X obj 369 274 list;
#X obj 283 535 16;
#X obj 394 665 f;
#X floatatom 396 694 5 0 0 0 - - -;
#X obj 436 304 print;
#X msg 311 215 9 f 2;
#N canvas 260 299 450 385 conv 0;
#X msg 215 106 symbol f2g;
#X msg 296 71 symbol 2f4d;
#X msg 362 133 symbol fffffggg;
#X floatatom 441 192 12 0 0 0 - - -;
#N canvas -8 -8 1920 1008 integer-processor 0;
#X obj 607 31 inlet;
#X obj 245 812 outlet;
#X floatatom 606 72 12 0 0 0 - - -;
#X obj 611 288 % 10;
#X floatatom 611 392 5 0 0 0 - - -;
#X floatatom 566 392 5 0 0 0 - - -;
#X obj 565 348 i;
#X obj 518 287 / 100;
#X floatatom 515 393 5 0 0 0 - - -;
#X obj 517 350 i;
#X obj 565 288 / 10;
#X obj 563 316 % 10;
#X floatatom 453 394 5 0 0 0 - - -;
#X obj 451 349 i;
#X obj 523 320 % 10;
#X obj 456 288 / 1000;
#X obj 447 320 % 10;
#X obj 136 474 pack i i i i i i i i, f 65;
#X floatatom 377 392 5 0 0 0 - - -;
#X obj 375 347 i;
#X obj 371 318 % 10;
#X obj 380 286 / 10000;
#X floatatom 300 390 5 0 0 0 - - -;
#X obj 298 345 i;
#X obj 294 316 % 10;
#X obj 303 284 / 100000;
#X floatatom 224 393 5 0 0 0 - - -;
#X obj 222 348 i;
#X obj 218 319 % 10;
#X floatatom 136 390 5 0 0 0 - - -;
#X obj 134 345 i;
#X obj 130 316 % 10;
#X obj 227 287 / 1e+006;
#X obj 139 284 / 1e+007;
#X obj 212 725 list split;
#X floatatom 756 347 5 0 0 0 - - -;
#X obj 756 274 /;
#X obj 756 230 log;
#X msg 799 191 10;
#X obj 799 228 log;
#X obj 756 151 t i b;
#X obj 756 314 i;
#X obj 756 406 - 8;
#X obj 756 447 abs;
#X floatatom 756 498 5 0 0 0 - - -;
#X obj 756 377 + 1;
#X obj 186 645 list;
#X obj 247 588 t b i;
#X obj 243 774 list;
#X connect 0 0 2 0;
#X connect 2 0 3 0;
#X connect 2 0 7 0;
#X connect 2 0 10 0;
#X connect 2 0 15 0;
#X connect 2 0 21 0;
#X connect 2 0 25 0;
#X connect 2 0 32 0;
#X connect 2 0 33 0;
#X connect 2 0 40 0;
#X connect 3 0 4 0;
#X connect 4 0 17 7;
#X connect 5 0 17 6;
#X connect 6 0 5 0;
#X connect 7 0 14 0;
#X connect 8 0 17 5;
#X connect 9 0 8 0;
#X connect 10 0 11 0;
#X connect 11 0 6 0;
#X connect 12 0 17 4;
#X connect 13 0 12 0;
#X connect 14 0 9 0;
#X connect 15 0 16 0;
#X connect 16 0 13 0;
#X connect 17 0 46 1;
#X connect 18 0 17 3;
#X connect 19 0 18 0;
#X connect 20 0 19 0;
#X connect 21 0 20 0;
#X connect 22 0 17 2;
#X connect 23 0 22 0;
#X connect 24 0 23 0;
#X connect 25 0 24 0;
#X connect 26 0 17 1;
#X connect 27 0 26 0;
#X connect 28 0 27 0;
#X connect 29 0 17 0;
#X connect 30 0 29 0;
#X connect 31 0 30 0;
#X connect 32 0 28 0;
#X connect 33 0 31 0;
#X connect 34 1 48 0;
#X connect 35 0 45 0;
#X connect 36 0 41 0;
#X connect 37 0 36 0;
#X connect 38 0 39 0;
#X connect 39 0 36 1;
#X connect 40 0 37 0;
#X connect 40 1 38 0;
#X connect 41 0 35 0;
#X connect 42 0 43 0;
#X connect 43 0 44 0;
#X connect 44 0 47 0;
#X connect 45 0 42 0;
#X connect 46 0 34 0;
#X connect 47 0 46 0;
#X connect 47 1 34 1;
#X connect 48 0 1 0;
#X restore 440 339 pd integer-processor;
#N canvas 240 188 608 776 symbol-processor 0;
#X obj 148 68 inlet;
#X obj 68 666 outlet;
#X obj 148 193 list fromsymbol;
#X obj 306 315 list tosymbol;
#X obj 415 315 list tosymbol;
#X obj 198 452 list;
#X obj 198 315 list tosymbol;
#X obj 67 287 list length;
#X obj 68 555 list split;
#X floatatom 135 379 5 0 0 0 - - -;
#X obj 198 255 unpack f f f f f f f f, f 109;
#X obj 523 315 list tosymbol;
#X obj 632 315 list tosymbol;
#X obj 849 315 list tosymbol;
#X obj 958 315 list tosymbol;
#X obj 740 315 list tosymbol;
#X obj 198 378 pack s s s s s s s s, f 109;
#X connect 0 0 2 0;
#X connect 2 0 7 0;
#X connect 2 0 10 0;
#X connect 3 0 16 1;
#X connect 4 0 16 2;
#X connect 5 0 8 0;
#X connect 6 0 16 0;
#X connect 7 0 9 0;
#X connect 8 0 1 0;
#X connect 9 0 8 1;
#X connect 10 0 6 0;
#X connect 10 1 3 0;
#X connect 10 2 4 0;
#X connect 10 3 11 0;
#X connect 10 4 12 0;
#X connect 10 5 15 0;
#X connect 10 6 13 0;
#X connect 10 7 14 0;
#X connect 11 0 16 3;
#X connect 12 0 16 4;
#X connect 13 0 16 6;
#X connect 14 0 16 7;
#X connect 15 0 16 5;
#X connect 16 0 5 0;
#X restore 296 339 pd symbol-processor;
#X obj 440 458 print THE-LIST;
#X text 435 66 epic symbol & ingteger to list;
#X obj 296 262 route symbol i;
#X obj 132 149 inlet, f 10;
#X obj 296 456 outlet, f 10;
#X connect 0 0 8 0;
#X connect 1 0 8 0;
#X connect 2 0 8 0;
#X connect 3 0 8 0;
#X connect 4 0 10 0;
#X connect 5 0 10 0;
#X connect 8 0 5 0;
#X connect 8 2 4 0;
#X connect 9 0 8 0;
#X restore 473 217 pd conv;
#X obj 501 169 list prepend;
#X obj 856 459 inlet;
#X obj 854 572 outlet;
#X connect 0 0 11 0;
#X connect 1 0 4 0;
#X connect 2 0 0 0;
#X connect 2 1 1 1;
#X connect 2 1 20 0;
#X connect 3 0 1 0;
#X connect 3 1 6 0;
#X connect 3 2 2 1;
#X connect 3 2 15 0;
#X connect 4 0 5 0;
#X connect 4 0 7 0;
#X connect 5 0 4 1;
#X connect 5 0 16 0;
#X connect 6 0 4 1;
#X connect 6 0 9 0;
#X connect 6 0 8 1;
#X connect 7 0 2 0;
#X connect 8 0 9 0;
#X connect 9 0 8 1;
#X connect 9 0 13 0;
#X connect 9 0 20 1;
#X connect 10 0 11 1;
#X connect 11 0 8 0;
#X connect 12 0 19 0;
#X connect 14 0 10 1;
#X connect 14 0 12 0;
#X connect 15 0 17 1;
#X connect 16 0 17 0;
#X connect 17 0 14 0;
#X connect 18 0 3 0;
#X connect 19 0 10 0;
#X connect 20 0 21 0;
#X connect 21 0 27 0;
#X connect 23 0 18 0;
#X connect 24 0 18 0;
#X connect 25 0 24 0;
#X connect 26 0 25 0;
#X restore 1431 417 pd HexToDec;
#N canvas -8 -8 1920 1008 HexToDec 0;
#X obj 440 470 easyflow/hexCharToDec;
#X obj 343 336 until;
#X obj 361 420 list store;
#X obj 369 303 t b b l;
#X obj 343 361 f;
#X obj 381 362 + 1;
#X msg 395 336 0, f 2;
#X msg 342 390 get \$1 1;
#X obj 324 627 +;
#X obj 367 633 f;
#X obj 293 565 pow;
#X obj 312 596 *;
#X obj 274 492 bng 15 250 50 0 empty empty empty 17 7 0 10 -262144
-1 -1;
#X floatatom 348 662 5 0 0 0 - - -;
#X floatatom 325 528 5 0 0 0 - - -;
#X obj 347 465 list length;
#X obj 297 456 * -1;
#X obj 327 496 +;
#X obj 369 274 list;
#X obj 283 535 16;
#X obj 394 665 f;
#X floatatom 396 694 5 0 0 0 - - -;
#X obj 436 304 print;
#X msg 311 215 9 f 2;
#N canvas 260 299 450 385 conv 0;
#X msg 215 106 symbol f2g;
#X msg 296 71 symbol 2f4d;
#X msg 362 133 symbol fffffggg;
#X floatatom 441 192 12 0 0 0 - - -;
#N canvas -8 -8 1920 1008 integer-processor 0;
#X obj 607 31 inlet;
#X obj 245 812 outlet;
#X floatatom 606 72 12 0 0 0 - - -;
#X obj 611 288 % 10;
#X floatatom 611 392 5 0 0 0 - - -;
#X floatatom 566 392 5 0 0 0 - - -;
#X obj 565 348 i;
#X obj 518 287 / 100;
#X floatatom 515 393 5 0 0 0 - - -;
#X obj 517 350 i;
#X obj 565 288 / 10;
#X obj 563 316 % 10;
#X floatatom 453 394 5 0 0 0 - - -;
#X obj 451 349 i;
#X obj 523 320 % 10;
#X obj 456 288 / 1000;
#X obj 447 320 % 10;
#X obj 136 474 pack i i i i i i i i, f 65;
#X floatatom 377 392 5 0 0 0 - - -;
#X obj 375 347 i;
#X obj 371 318 % 10;
#X obj 380 286 / 10000;
#X floatatom 300 390 5 0 0 0 - - -;
#X obj 298 345 i;
#X obj 294 316 % 10;
#X obj 303 284 / 100000;
#X floatatom 224 393 5 0 0 0 - - -;
#X obj 222 348 i;
#X obj 218 319 % 10;
#X floatatom 136 390 5 0 0 0 - - -;
#X obj 134 345 i;
#X obj 130 316 % 10;
#X obj 227 287 / 1e+006;
#X obj 139 284 / 1e+007;
#X obj 212 725 list split;
#X floatatom 756 347 5 0 0 0 - - -;
#X obj 756 274 /;
#X obj 756 230 log;
#X msg 799 191 10;
#X obj 799 228 log;
#X obj 756 151 t i b;
#X obj 756 314 i;
#X obj 756 406 - 8;
#X obj 756 447 abs;
#X floatatom 756 498 5 0 0 0 - - -;
#X obj 756 377 + 1;
#X obj 186 645 list;
#X obj 247 588 t b i;
#X obj 243 774 list;
#X connect 0 0 2 0;
#X connect 2 0 3 0;
#X connect 2 0 7 0;
#X connect 2 0 10 0;
#X connect 2 0 15 0;
#X connect 2 0 21 0;
#X connect 2 0 25 0;
#X connect 2 0 32 0;
#X connect 2 0 33 0;
#X connect 2 0 40 0;
#X connect 3 0 4 0;
#X connect 4 0 17 7;
#X connect 5 0 17 6;
#X connect 6 0 5 0;
#X connect 7 0 14 0;
#X connect 8 0 17 5;
#X connect 9 0 8 0;
#X connect 10 0 11 0;
#X connect 11 0 6 0;
#X connect 12 0 17 4;
#X connect 13 0 12 0;
#X connect 14 0 9 0;
#X connect 15 0 16 0;
#X connect 16 0 13 0;
#X connect 17 0 46 1;
#X connect 18 0 17 3;
#X connect 19 0 18 0;
#X connect 20 0 19 0;
#X connect 21 0 20 0;
#X connect 22 0 17 2;
#X connect 23 0 22 0;
#X connect 24 0 23 0;
#X connect 25 0 24 0;
#X connect 26 0 17 1;
#X connect 27 0 26 0;
#X connect 28 0 27 0;
#X connect 29 0 17 0;
#X connect 30 0 29 0;
#X connect 31 0 30 0;
#X connect 32 0 28 0;
#X connect 33 0 31 0;
#X connect 34 1 48 0;
#X connect 35 0 45 0;
#X connect 36 0 41 0;
#X connect 37 0 36 0;
#X connect 38 0 39 0;
#X connect 39 0 36 1;
#X connect 40 0 37 0;
#X connect 40 1 38 0;
#X connect 41 0 35 0;
#X connect 42 0 43 0;
#X connect 43 0 44 0;
#X connect 44 0 47 0;
#X connect 45 0 42 0;
#X connect 46 0 34 0;
#X connect 47 0 46 0;
#X connect 47 1 34 1;
#X connect 48 0 1 0;
#X restore 440 339 pd integer-processor;
#N canvas 240 188 608 776 symbol-processor 0;
#X obj 148 68 inlet;
#X obj 68 666 outlet;
#X obj 148 193 list fromsymbol;
#X obj 306 315 list tosymbol;
#X obj 415 315 list tosymbol;
#X obj 198 452 list;
#X obj 198 315 list tosymbol;
#X obj 67 287 list length;
#X obj 68 555 list split;
#X floatatom 135 379 5 0 0 0 - - -;
#X obj 198 255 unpack f f f f f f f f, f 109;
#X obj 523 315 list tosymbol;
#X obj 632 315 list tosymbol;
#X obj 849 315 list tosymbol;
#X obj 958 315 list tosymbol;
#X obj 740 315 list tosymbol;
#X obj 198 378 pack s s s s s s s s, f 109;
#X connect 0 0 2 0;
#X connect 2 0 7 0;
#X connect 2 0 10 0;
#X connect 3 0 16 1;
#X connect 4 0 16 2;
#X connect 5 0 8 0;
#X connect 6 0 16 0;
#X connect 7 0 9 0;
#X connect 8 0 1 0;
#X connect 9 0 8 1;
#X connect 10 0 6 0;
#X connect 10 1 3 0;
#X connect 10 2 4 0;
#X connect 10 3 11 0;
#X connect 10 4 12 0;
#X connect 10 5 15 0;
#X connect 10 6 13 0;
#X connect 10 7 14 0;
#X connect 11 0 16 3;
#X connect 12 0 16 4;
#X connect 13 0 16 6;
#X connect 14 0 16 7;
#X connect 15 0 16 5;
#X connect 16 0 5 0;
#X restore 296 339 pd symbol-processor;
#X obj 440 458 print THE-LIST;
#X text 435 66 epic symbol & ingteger to list;
#X obj 296 262 route symbol i;
#X obj 132 149 inlet, f 10;
#X obj 296 456 outlet, f 10;
#X connect 0 0 8 0;
#X connect 1 0 8 0;
#X connect 2 0 8 0;
#X connect 3 0 8 0;
#X connect 4 0 10 0;
#X connect 5 0 10 0;
#X connect 8 0 5 0;
#X connect 8 2 4 0;
#X connect 9 0 8 0;
#X restore 473 217 pd conv;
#X obj 501 169 list prepend;
#X obj 856 459 inlet;
#X obj 854 572 outlet;
#X connect 0 0 11 0;
#X connect 1 0 4 0;
#X connect 2 0 0 0;
#X connect 2 1 1 1;
#X connect 2 1 20 0;
#X connect 3 0 1 0;
#X connect 3 1 6 0;
#X connect 3 2 2 1;
#X connect 3 2 15 0;
#X connect 4 0 5 0;
#X connect 4 0 7 0;
#X connect 5 0 4 1;
#X connect 5 0 16 0;
#X connect 6 0 4 1;
#X connect 6 0 9 0;
#X connect 6 0 8 1;
#X connect 7 0 2 0;
#X connect 8 0 9 0;
#X connect 9 0 8 1;
#X connect 9 0 13 0;
#X connect 9 0 20 1;
#X connect 10 0 11 1;
#X connect 11 0 8 0;
#X connect 12 0 19 0;
#X connect 14 0 10 1;
#X connect 14 0 12 0;
#X connect 15 0 17 1;
#X connect 16 0 17 0;
#X connect 17 0 14 0;
#X connect 18 0 3 0;
#X connect 19 0 10 0;
#X connect 20 0 21 0;
#X connect 21 0 27 0;
#X connect 23 0 18 0;
#X connect 24 0 18 0;
#X connect 25 0 24 0;
#X connect 26 0 25 0;
#X restore 1045 447 pd HexToDec;
#N canvas -8 -8 1920 1008 HexToDec 0;
#X obj 440 470 easyflow/hexCharToDec;
#X obj 343 336 until;
#X obj 361 420 list store;
#X obj 369 303 t b b l;
#X obj 343 361 f;
#X obj 381 362 + 1;
#X msg 395 336 0, f 2;
#X msg 342 390 get \$1 1;
#X obj 324 627 +;
#X obj 367 633 f;
#X obj 293 565 pow;
#X obj 312 596 *;
#X obj 274 492 bng 15 250 50 0 empty empty empty 17 7 0 10 -262144
-1 -1;
#X floatatom 348 662 5 0 0 0 - - -;
#X floatatom 325 528 5 0 0 0 - - -;
#X obj 347 465 list length;
#X obj 297 456 * -1;
#X obj 327 496 +;
#X obj 369 274 list;
#X obj 283 535 16;
#X obj 394 665 f;
#X floatatom 396 694 5 0 0 0 - - -;
#X obj 436 304 print;
#X msg 311 215 9 f 2;
#N canvas 260 299 450 385 conv 0;
#X msg 215 106 symbol f2g;
#X msg 296 71 symbol 2f4d;
#X msg 362 133 symbol fffffggg;
#X floatatom 441 192 12 0 0 0 - - -;
#N canvas -8 -8 1920 1008 integer-processor 0;
#X obj 607 31 inlet;
#X obj 245 812 outlet;
#X floatatom 606 72 12 0 0 0 - - -;
#X obj 611 288 % 10;
#X floatatom 611 392 5 0 0 0 - - -;
#X floatatom 566 392 5 0 0 0 - - -;
#X obj 565 348 i;
#X obj 518 287 / 100;
#X floatatom 515 393 5 0 0 0 - - -;
#X obj 517 350 i;
#X obj 565 288 / 10;
#X obj 563 316 % 10;
#X floatatom 453 394 5 0 0 0 - - -;
#X obj 451 349 i;
#X obj 523 320 % 10;
#X obj 456 288 / 1000;
#X obj 447 320 % 10;
#X obj 136 474 pack i i i i i i i i, f 65;
#X floatatom 377 392 5 0 0 0 - - -;
#X obj 375 347 i;
#X obj 371 318 % 10;
#X obj 380 286 / 10000;
#X floatatom 300 390 5 0 0 0 - - -;
#X obj 298 345 i;
#X obj 294 316 % 10;
#X obj 303 284 / 100000;
#X floatatom 224 393 5 0 0 0 - - -;
#X obj 222 348 i;
#X obj 218 319 % 10;
#X floatatom 136 390 5 0 0 0 - - -;
#X obj 134 345 i;
#X obj 130 316 % 10;
#X obj 227 287 / 1e+006;
#X obj 139 284 / 1e+007;
#X obj 212 725 list split;
#X floatatom 756 347 5 0 0 0 - - -;
#X obj 756 274 /;
#X obj 756 230 log;
#X msg 799 191 10;
#X obj 799 228 log;
#X obj 756 151 t i b;
#X obj 756 314 i;
#X obj 756 406 - 8;
#X obj 756 447 abs;
#X floatatom 756 498 5 0 0 0 - - -;
#X obj 756 377 + 1;
#X obj 186 645 list;
#X obj 247 588 t b i;
#X obj 243 774 list;
#X connect 0 0 2 0;
#X connect 2 0 3 0;
#X connect 2 0 7 0;
#X connect 2 0 10 0;
#X connect 2 0 15 0;
#X connect 2 0 21 0;
#X connect 2 0 25 0;
#X connect 2 0 32 0;
#X connect 2 0 33 0;
#X connect 2 0 40 0;
#X connect 3 0 4 0;
#X connect 4 0 17 7;
#X connect 5 0 17 6;
#X connect 6 0 5 0;
#X connect 7 0 14 0;
#X connect 8 0 17 5;
#X connect 9 0 8 0;
#X connect 10 0 11 0;
#X connect 11 0 6 0;
#X connect 12 0 17 4;
#X connect 13 0 12 0;
#X connect 14 0 9 0;
#X connect 15 0 16 0;
#X connect 16 0 13 0;
#X connect 17 0 46 1;
#X connect 18 0 17 3;
#X connect 19 0 18 0;
#X connect 20 0 19 0;
#X connect 21 0 20 0;
#X connect 22 0 17 2;
#X connect 23 0 22 0;
#X connect 24 0 23 0;
#X connect 25 0 24 0;
#X connect 26 0 17 1;
#X connect 27 0 26 0;
#X connect 28 0 27 0;
#X connect 29 0 17 0;
#X connect 30 0 29 0;
#X connect 31 0 30 0;
#X connect 32 0 28 0;
#X connect 33 0 31 0;
#X connect 34 1 48 0;
#X connect 35 0 45 0;
#X connect 36 0 41 0;
#X connect 37 0 36 0;
#X connect 38 0 39 0;
#X connect 39 0 36 1;
#X connect 40 0 37 0;
#X connect 40 1 38 0;
#X connect 41 0 35 0;
#X connect 42 0 43 0;
#X connect 43 0 44 0;
#X connect 44 0 47 0;
#X connect 45 0 42 0;
#X connect 46 0 34 0;
#X connect 47 0 46 0;
#X connect 47 1 34 1;
#X connect 48 0 1 0;
#X restore 440 339 pd integer-processor;
#N canvas 240 188 608 776 symbol-processor 0;
#X obj 148 68 inlet;
#X obj 68 666 outlet;
#X obj 148 193 list fromsymbol;
#X obj 306 315 list tosymbol;
#X obj 415 315 list tosymbol;
#X obj 198 452 list;
#X obj 198 315 list tosymbol;
#X obj 67 287 list length;
#X obj 68 555 list split;
#X floatatom 135 379 5 0 0 0 - - -;
#X obj 198 255 unpack f f f f f f f f, f 109;
#X obj 523 315 list tosymbol;
#X obj 632 315 list tosymbol;
#X obj 849 315 list tosymbol;
#X obj 958 315 list tosymbol;
#X obj 740 315 list tosymbol;
#X obj 198 378 pack s s s s s s s s, f 109;
#X connect 0 0 2 0;
#X connect 2 0 7 0;
#X connect 2 0 10 0;
#X connect 3 0 16 1;
#X connect 4 0 16 2;
#X connect 5 0 8 0;
#X connect 6 0 16 0;
#X connect 7 0 9 0;
#X connect 8 0 1 0;
#X connect 9 0 8 1;
#X connect 10 0 6 0;
#X connect 10 1 3 0;
#X connect 10 2 4 0;
#X connect 10 3 11 0;
#X connect 10 4 12 0;
#X connect 10 5 15 0;
#X connect 10 6 13 0;
#X connect 10 7 14 0;
#X connect 11 0 16 3;
#X connect 12 0 16 4;
#X connect 13 0 16 6;
#X connect 14 0 16 7;
#X connect 15 0 16 5;
#X connect 16 0 5 0;
#X restore 296 339 pd symbol-processor;
#X obj 440 458 print THE-LIST;
#X text 435 66 epic symbol & ingteger to list;
#X obj 296 262 route symbol i;
#X obj 132 149 inlet, f 10;
#X obj 296 456 outlet, f 10;
#X connect 0 0 8 0;
#X connect 1 0 8 0;
#X connect 2 0 8 0;
#X connect 3 0 8 0;
#X connect 4 0 10 0;
#X connect 5 0 10 0;
#X connect 8 0 5 0;
#X connect 8 2 4 0;
#X connect 9 0 8 0;
#X restore 473 217 pd conv;
#X obj 501 169 list prepend;
#X obj 856 459 inlet;
#X obj 854 572 outlet;
#X connect 0 0 11 0;
#X connect 1 0 4 0;
#X connect 2 0 0 0;
#X connect 2 1 1 1;
#X connect 2 1 20 0;
#X connect 3 0 1 0;
#X connect 3 1 6 0;
#X connect 3 2 2 1;
#X connect 3 2 15 0;
#X connect 4 0 5 0;
#X connect 4 0 7 0;
#X connect 5 0 4 1;
#X connect 5 0 16 0;
#X connect 6 0 4 1;
#X connect 6 0 9 0;
#X connect 6 0 8 1;
#X connect 7 0 2 0;
#X connect 8 0 9 0;
#X connect 9 0 8 1;
#X connect 9 0 13 0;
#X connect 9 0 20 1;
#X connect 10 0 11 1;
#X connect 11 0 8 0;
#X connect 12 0 19 0;
#X connect 14 0 10 1;
#X connect 14 0 12 0;
#X connect 15 0 17 1;
#X connect 16 0 17 0;
#X connect 17 0 14 0;
#X connect 18 0 3 0;
#X connect 19 0 10 0;
#X connect 20 0 21 0;
#X connect 21 0 27 0;
#X connect 23 0 18 0;
#X connect 24 0 18 0;
#X connect 25 0 24 0;
#X connect 26 0 25 0;
#X restore 1759 409 pd HexToDec;
#N canvas -8 -8 1920 1008 HexToDec 0;
#X obj 440 470 easyflow/hexCharToDec;
#X obj 343 336 until;
#X obj 361 420 list store;
#X obj 369 303 t b b l;
#X obj 343 361 f;
#X obj 381 362 + 1;
#X msg 395 336 0, f 2;
#X msg 342 390 get \$1 1;
#X obj 324 627 +;
#X obj 367 633 f;
#X obj 293 565 pow;
#X obj 312 596 *;
#X obj 274 492 bng 15 250 50 0 empty empty empty 17 7 0 10 -262144
-1 -1;
#X floatatom 348 662 5 0 0 0 - - -;
#X floatatom 325 528 5 0 0 0 - - -;
#X obj 347 465 list length;
#X obj 297 456 * -1;
#X obj 327 496 +;
#X obj 369 274 list;
#X obj 283 535 16;
#X obj 394 665 f;
#X floatatom 396 694 5 0 0 0 - - -;
#X obj 436 304 print;
#X msg 311 215 9 f 2;
#N canvas 260 299 450 385 conv 0;
#X msg 215 106 symbol f2g;
#X msg 296 71 symbol 2f4d;
#X msg 362 133 symbol fffffggg;
#X floatatom 441 192 12 0 0 0 - - -;
#N canvas -8 -8 1920 1008 integer-processor 0;
#X obj 607 31 inlet;
#X obj 245 812 outlet;
#X floatatom 606 72 12 0 0 0 - - -;
#X obj 611 288 % 10;
#X floatatom 611 392 5 0 0 0 - - -;
#X floatatom 566 392 5 0 0 0 - - -;
#X obj 565 348 i;
#X obj 518 287 / 100;
#X floatatom 515 393 5 0 0 0 - - -;
#X obj 517 350 i;
#X obj 565 288 / 10;
#X obj 563 316 % 10;
#X floatatom 453 394 5 0 0 0 - - -;
#X obj 451 349 i;
#X obj 523 320 % 10;
#X obj 456 288 / 1000;
#X obj 447 320 % 10;
#X obj 136 474 pack i i i i i i i i, f 65;
#X floatatom 377 392 5 0 0 0 - - -;
#X obj 375 347 i;
#X obj 371 318 % 10;
#X obj 380 286 / 10000;
#X floatatom 300 390 5 0 0 0 - - -;
#X obj 298 345 i;
#X obj 294 316 % 10;
#X obj 303 284 / 100000;
#X floatatom 224 393 5 0 0 0 - - -;
#X obj 222 348 i;
#X obj 218 319 % 10;
#X floatatom 136 390 5 0 0 0 - - -;
#X obj 134 345 i;
#X obj 130 316 % 10;
#X obj 227 287 / 1e+006;
#X obj 139 284 / 1e+007;
#X obj 212 725 list split;
#X floatatom 756 347 5 0 0 0 - - -;
#X obj 756 274 /;
#X obj 756 230 log;
#X msg 799 191 10;
#X obj 799 228 log;
#X obj 756 151 t i b;
#X obj 756 314 i;
#X obj 756 406 - 8;
#X obj 756 447 abs;
#X floatatom 756 498 5 0 0 0 - - -;
#X obj 756 377 + 1;
#X obj 186 645 list;
#X obj 247 588 t b i;
#X obj 243 774 list;
#X connect 0 0 2 0;
#X connect 2 0 3 0;
#X connect 2 0 7 0;
#X connect 2 0 10 0;
#X connect 2 0 15 0;
#X connect 2 0 21 0;
#X connect 2 0 25 0;
#X connect 2 0 32 0;
#X connect 2 0 33 0;
#X connect 2 0 40 0;
#X connect 3 0 4 0;
#X connect 4 0 17 7;
#X connect 5 0 17 6;
#X connect 6 0 5 0;
#X connect 7 0 14 0;
#X connect 8 0 17 5;
#X connect 9 0 8 0;
#X connect 10 0 11 0;
#X connect 11 0 6 0;
#X connect 12 0 17 4;
#X connect 13 0 12 0;
#X connect 14 0 9 0;
#X connect 15 0 16 0;
#X connect 16 0 13 0;
#X connect 17 0 46 1;
#X connect 18 0 17 3;
#X connect 19 0 18 0;
#X connect 20 0 19 0;
#X connect 21 0 20 0;
#X connect 22 0 17 2;
#X connect 23 0 22 0;
#X connect 24 0 23 0;
#X connect 25 0 24 0;
#X connect 26 0 17 1;
#X connect 27 0 26 0;
#X connect 28 0 27 0;
#X connect 29 0 17 0;
#X connect 30 0 29 0;
#X connect 31 0 30 0;
#X connect 32 0 28 0;
#X connect 33 0 31 0;
#X connect 34 1 48 0;
#X connect 35 0 45 0;
#X connect 36 0 41 0;
#X connect 37 0 36 0;
#X connect 38 0 39 0;
#X connect 39 0 36 1;
#X connect 40 0 37 0;
#X connect 40 1 38 0;
#X connect 41 0 35 0;
#X connect 42 0 43 0;
#X connect 43 0 44 0;
#X connect 44 0 47 0;
#X connect 45 0 42 0;
#X connect 46 0 34 0;
#X connect 47 0 46 0;
#X connect 47 1 34 1;
#X connect 48 0 1 0;
#X restore 440 339 pd integer-processor;
#N canvas 240 188 608 776 symbol-processor 0;
#X obj 148 68 inlet;
#X obj 68 666 outlet;
#X obj 148 193 list fromsymbol;
#X obj 306 315 list tosymbol;
#X obj 415 315 list tosymbol;
#X obj 198 452 list;
#X obj 198 315 list tosymbol;
#X obj 67 287 list length;
#X obj 68 555 list split;
#X floatatom 135 379 5 0 0 0 - - -;
#X obj 198 255 unpack f f f f f f f f, f 109;
#X obj 523 315 list tosymbol;
#X obj 632 315 list tosymbol;
#X obj 849 315 list tosymbol;
#X obj 958 315 list tosymbol;
#X obj 740 315 list tosymbol;
#X obj 198 378 pack s s s s s s s s, f 109;
#X connect 0 0 2 0;
#X connect 2 0 7 0;
#X connect 2 0 10 0;
#X connect 3 0 16 1;
#X connect 4 0 16 2;
#X connect 5 0 8 0;
#X connect 6 0 16 0;
#X connect 7 0 9 0;
#X connect 8 0 1 0;
#X connect 9 0 8 1;
#X connect 10 0 6 0;
#X connect 10 1 3 0;
#X connect 10 2 4 0;
#X connect 10 3 11 0;
#X connect 10 4 12 0;
#X connect 10 5 15 0;
#X connect 10 6 13 0;
#X connect 10 7 14 0;
#X connect 11 0 16 3;
#X connect 12 0 16 4;
#X connect 13 0 16 6;
#X connect 14 0 16 7;
#X connect 15 0 16 5;
#X connect 16 0 5 0;
#X restore 296 339 pd symbol-processor;
#X obj 440 458 print THE-LIST;
#X text 435 66 epic symbol & ingteger to list;
#X obj 296 262 route symbol i;
#X obj 132 149 inlet, f 10;
#X obj 296 456 outlet, f 10;
#X connect 0 0 8 0;
#X connect 1 0 8 0;
#X connect 2 0 8 0;
#X connect 3 0 8 0;
#X connect 4 0 10 0;
#X connect 5 0 10 0;
#X connect 8 0 5 0;
#X connect 8 2 4 0;
#X connect 9 0 8 0;
#X restore 473 217 pd conv;
#X obj 501 169 list prepend;
#X obj 856 459 inlet;
#X obj 854 572 outlet;
#X connect 0 0 11 0;
#X connect 1 0 4 0;
#X connect 2 0 0 0;
#X connect 2 1 1 1;
#X connect 2 1 20 0;
#X connect 3 0 1 0;
#X connect 3 1 6 0;
#X connect 3 2 2 1;
#X connect 3 2 15 0;
#X connect 4 0 5 0;
#X connect 4 0 7 0;
#X connect 5 0 4 1;
#X connect 5 0 16 0;
#X connect 6 0 4 1;
#X connect 6 0 9 0;
#X connect 6 0 8 1;
#X connect 7 0 2 0;
#X connect 8 0 9 0;
#X connect 9 0 8 1;
#X connect 9 0 13 0;
#X connect 9 0 20 1;
#X connect 10 0 11 1;
#X connect 11 0 8 0;
#X connect 12 0 19 0;
#X connect 14 0 10 1;
#X connect 14 0 12 0;
#X connect 15 0 17 1;
#X connect 16 0 17 0;
#X connect 17 0 14 0;
#X connect 18 0 3 0;
#X connect 19 0 10 0;
#X connect 20 0 21 0;
#X connect 21 0 27 0;
#X connect 23 0 18 0;
#X connect 24 0 18 0;
#X connect 25 0 24 0;
#X connect 26 0 25 0;
#X restore 1170 352 pd HexToDec;
#N canvas -8 -8 1920 1008 HexToDec 0;
#X obj 440 470 easyflow/hexCharToDec;
#X obj 343 336 until;
#X obj 361 420 list store;
#X obj 369 303 t b b l;
#X obj 343 361 f;
#X obj 381 362 + 1;
#X msg 395 336 0, f 2;
#X msg 342 390 get \$1 1;
#X obj 324 627 +;
#X obj 367 633 f;
#X obj 293 565 pow;
#X obj 312 596 *;
#X obj 274 492 bng 15 250 50 0 empty empty empty 17 7 0 10 -262144
-1 -1;
#X floatatom 348 662 5 0 0 0 - - -;
#X floatatom 325 528 5 0 0 0 - - -;
#X obj 347 465 list length;
#X obj 297 456 * -1;
#X obj 327 496 +;
#X obj 369 274 list;
#X obj 283 535 16;
#X obj 394 665 f;
#X floatatom 396 694 5 0 0 0 - - -;
#X obj 436 304 print;
#X msg 311 215 9 f 2;
#N canvas 260 299 450 385 conv 0;
#X msg 215 106 symbol f2g;
#X msg 296 71 symbol 2f4d;
#X msg 362 133 symbol fffffggg;
#X floatatom 441 192 12 0 0 0 - - -;
#N canvas -8 -8 1920 1008 integer-processor 0;
#X obj 607 31 inlet;
#X obj 245 812 outlet;
#X floatatom 606 72 12 0 0 0 - - -;
#X obj 611 288 % 10;
#X floatatom 611 392 5 0 0 0 - - -;
#X floatatom 566 392 5 0 0 0 - - -;
#X obj 565 348 i;
#X obj 518 287 / 100;
#X floatatom 515 393 5 0 0 0 - - -;
#X obj 517 350 i;
#X obj 565 288 / 10;
#X obj 563 316 % 10;
#X floatatom 453 394 5 0 0 0 - - -;
#X obj 451 349 i;
#X obj 523 320 % 10;
#X obj 456 288 / 1000;
#X obj 447 320 % 10;
#X obj 136 474 pack i i i i i i i i, f 65;
#X floatatom 377 392 5 0 0 0 - - -;
#X obj 375 347 i;
#X obj 371 318 % 10;
#X obj 380 286 / 10000;
#X floatatom 300 390 5 0 0 0 - - -;
#X obj 298 345 i;
#X obj 294 316 % 10;
#X obj 303 284 / 100000;
#X floatatom 224 393 5 0 0 0 - - -;
#X obj 222 348 i;
#X obj 218 319 % 10;
#X floatatom 136 390 5 0 0 0 - - -;
#X obj 134 345 i;
#X obj 130 316 % 10;
#X obj 227 287 / 1e+006;
#X obj 139 284 / 1e+007;
#X obj 212 725 list split;
#X floatatom 756 347 5 0 0 0 - - -;
#X obj 756 274 /;
#X obj 756 230 log;
#X msg 799 191 10;
#X obj 799 228 log;
#X obj 756 151 t i b;
#X obj 756 314 i;
#X obj 756 406 - 8;
#X obj 756 447 abs;
#X floatatom 756 498 5 0 0 0 - - -;
#X obj 756 377 + 1;
#X obj 186 645 list;
#X obj 247 588 t b i;
#X obj 243 774 list;
#X connect 0 0 2 0;
#X connect 2 0 3 0;
#X connect 2 0 7 0;
#X connect 2 0 10 0;
#X connect 2 0 15 0;
#X connect 2 0 21 0;
#X connect 2 0 25 0;
#X connect 2 0 32 0;
#X connect 2 0 33 0;
#X connect 2 0 40 0;
#X connect 3 0 4 0;
#X connect 4 0 17 7;
#X connect 5 0 17 6;
#X connect 6 0 5 0;
#X connect 7 0 14 0;
#X connect 8 0 17 5;
#X connect 9 0 8 0;
#X connect 10 0 11 0;
#X connect 11 0 6 0;
#X connect 12 0 17 4;
#X connect 13 0 12 0;
#X connect 14 0 9 0;
#X connect 15 0 16 0;
#X connect 16 0 13 0;
#X connect 17 0 46 1;
#X connect 18 0 17 3;
#X connect 19 0 18 0;
#X connect 20 0 19 0;
#X connect 21 0 20 0;
#X connect 22 0 17 2;
#X connect 23 0 22 0;
#X connect 24 0 23 0;
#X connect 25 0 24 0;
#X connect 26 0 17 1;
#X connect 27 0 26 0;
#X connect 28 0 27 0;
#X connect 29 0 17 0;
#X connect 30 0 29 0;
#X connect 31 0 30 0;
#X connect 32 0 28 0;
#X connect 33 0 31 0;
#X connect 34 1 48 0;
#X connect 35 0 45 0;
#X connect 36 0 41 0;
#X connect 37 0 36 0;
#X connect 38 0 39 0;
#X connect 39 0 36 1;
#X connect 40 0 37 0;
#X connect 40 1 38 0;
#X connect 41 0 35 0;
#X connect 42 0 43 0;
#X connect 43 0 44 0;
#X connect 44 0 47 0;
#X connect 45 0 42 0;
#X connect 46 0 34 0;
#X connect 47 0 46 0;
#X connect 47 1 34 1;
#X connect 48 0 1 0;
#X restore 440 339 pd integer-processor;
#N canvas 240 188 608 776 symbol-processor 0;
#X obj 148 68 inlet;
#X obj 68 666 outlet;
#X obj 148 193 list fromsymbol;
#X obj 306 315 list tosymbol;
#X obj 415 315 list tosymbol;
#X obj 198 452 list;
#X obj 198 315 list tosymbol;
#X obj 67 287 list length;
#X obj 68 555 list split;
#X floatatom 135 379 5 0 0 0 - - -;
#X obj 198 255 unpack f f f f f f f f, f 109;
#X obj 523 315 list tosymbol;
#X obj 632 315 list tosymbol;
#X obj 849 315 list tosymbol;
#X obj 958 315 list tosymbol;
#X obj 740 315 list tosymbol;
#X obj 198 378 pack s s s s s s s s, f 109;
#X connect 0 0 2 0;
#X connect 2 0 7 0;
#X connect 2 0 10 0;
#X connect 3 0 16 1;
#X connect 4 0 16 2;
#X connect 5 0 8 0;
#X connect 6 0 16 0;
#X connect 7 0 9 0;
#X connect 8 0 1 0;
#X connect 9 0 8 1;
#X connect 10 0 6 0;
#X connect 10 1 3 0;
#X connect 10 2 4 0;
#X connect 10 3 11 0;
#X connect 10 4 12 0;
#X connect 10 5 15 0;
#X connect 10 6 13 0;
#X connect 10 7 14 0;
#X connect 11 0 16 3;
#X connect 12 0 16 4;
#X connect 13 0 16 6;
#X connect 14 0 16 7;
#X connect 15 0 16 5;
#X connect 16 0 5 0;
#X restore 296 339 pd symbol-processor;
#X obj 440 458 print THE-LIST;
#X text 435 66 epic symbol & ingteger to list;
#X obj 296 262 route symbol i;
#X obj 132 149 inlet, f 10;
#X obj 296 456 outlet, f 10;
#X connect 0 0 8 0;
#X connect 1 0 8 0;
#X connect 2 0 8 0;
#X connect 3 0 8 0;
#X connect 4 0 10 0;
#X connect 5 0 10 0;
#X connect 8 0 5 0;
#X connect 8 2 4 0;
#X connect 9 0 8 0;
#X restore 473 217 pd conv;
#X obj 501 169 list prepend;
#X obj 856 459 inlet;
#X obj 854 572 outlet;
#X connect 0 0 11 0;
#X connect 1 0 4 0;
#X connect 2 0 0 0;
#X connect 2 1 1 1;
#X connect 2 1 20 0;
#X connect 3 0 1 0;
#X connect 3 1 6 0;
#X connect 3 2 2 1;
#X connect 3 2 15 0;
#X connect 4 0 5 0;
#X connect 4 0 7 0;
#X connect 5 0 4 1;
#X connect 5 0 16 0;
#X connect 6 0 4 1;
#X connect 6 0 9 0;
#X connect 6 0 8 1;
#X connect 7 0 2 0;
#X connect 8 0 9 0;
#X connect 9 0 8 1;
#X connect 9 0 13 0;
#X connect 9 0 20 1;
#X connect 10 0 11 1;
#X connect 11 0 8 0;
#X connect 12 0 19 0;
#X connect 14 0 10 1;
#X connect 14 0 12 0;
#X connect 15 0 17 1;
#X connect 16 0 17 0;
#X connect 17 0 14 0;
#X connect 18 0 3 0;
#X connect 19 0 10 0;
#X connect 20 0 21 0;
#X connect 21 0 27 0;
#X connect 23 0 18 0;
#X connect 24 0 18 0;
#X connect 25 0 24 0;
#X connect 26 0 25 0;
#X restore 1645 407 pd HexToDec;
#N canvas -8 -8 1920 1008 HexToDec 0;
#X obj 440 470 easyflow/hexCharToDec;
#X obj 343 336 until;
#X obj 361 420 list store;
#X obj 369 303 t b b l;
#X obj 343 361 f;
#X obj 381 362 + 1;
#X msg 395 336 0, f 2;
#X msg 342 390 get \$1 1;
#X obj 324 627 +;
#X obj 367 633 f;
#X obj 293 565 pow;
#X obj 312 596 *;
#X obj 274 492 bng 15 250 50 0 empty empty empty 17 7 0 10 -262144
-1 -1;
#X floatatom 348 662 5 0 0 0 - - -;
#X floatatom 325 528 5 0 0 0 - - -;
#X obj 347 465 list length;
#X obj 297 456 * -1;
#X obj 327 496 +;
#X obj 369 274 list;
#X obj 283 535 16;
#X obj 394 665 f;
#X floatatom 396 694 5 0 0 0 - - -;
#X obj 436 304 print;
#X msg 311 215 9 f 2;
#N canvas 260 299 450 385 conv 0;
#X msg 215 106 symbol f2g;
#X msg 296 71 symbol 2f4d;
#X msg 362 133 symbol fffffggg;
#X floatatom 441 192 12 0 0 0 - - -;
#N canvas -8 -8 1920 1008 integer-processor 0;
#X obj 607 31 inlet;
#X obj 245 812 outlet;
#X floatatom 606 72 12 0 0 0 - - -;
#X obj 611 288 % 10;
#X floatatom 611 392 5 0 0 0 - - -;
#X floatatom 566 392 5 0 0 0 - - -;
#X obj 565 348 i;
#X obj 518 287 / 100;
#X floatatom 515 393 5 0 0 0 - - -;
#X obj 517 350 i;
#X obj 565 288 / 10;
#X obj 563 316 % 10;
#X floatatom 453 394 5 0 0 0 - - -;
#X obj 451 349 i;
#X obj 523 320 % 10;
#X obj 456 288 / 1000;
#X obj 447 320 % 10;
#X obj 136 474 pack i i i i i i i i, f 65;
#X floatatom 377 392 5 0 0 0 - - -;
#X obj 375 347 i;
#X obj 371 318 % 10;
#X obj 380 286 / 10000;
#X floatatom 300 390 5 0 0 0 - - -;
#X obj 298 345 i;
#X obj 294 316 % 10;
#X obj 303 284 / 100000;
#X floatatom 224 393 5 0 0 0 - - -;
#X obj 222 348 i;
#X obj 218 319 % 10;
#X floatatom 136 390 5 0 0 0 - - -;
#X obj 134 345 i;
#X obj 130 316 % 10;
#X obj 227 287 / 1e+006;
#X obj 139 284 / 1e+007;
#X obj 212 725 list split;
#X floatatom 756 347 5 0 0 0 - - -;
#X obj 756 274 /;
#X obj 756 230 log;
#X msg 799 191 10;
#X obj 799 228 log;
#X obj 756 151 t i b;
#X obj 756 314 i;
#X obj 756 406 - 8;
#X obj 756 447 abs;
#X floatatom 756 498 5 0 0 0 - - -;
#X obj 756 377 + 1;
#X obj 186 645 list;
#X obj 247 588 t b i;
#X obj 243 774 list;
#X connect 0 0 2 0;
#X connect 2 0 3 0;
#X connect 2 0 7 0;
#X connect 2 0 10 0;
#X connect 2 0 15 0;
#X connect 2 0 21 0;
#X connect 2 0 25 0;
#X connect 2 0 32 0;
#X connect 2 0 33 0;
#X connect 2 0 40 0;
#X connect 3 0 4 0;
#X connect 4 0 17 7;
#X connect 5 0 17 6;
#X connect 6 0 5 0;
#X connect 7 0 14 0;
#X connect 8 0 17 5;
#X connect 9 0 8 0;
#X connect 10 0 11 0;
#X connect 11 0 6 0;
#X connect 12 0 17 4;
#X connect 13 0 12 0;
#X connect 14 0 9 0;
#X connect 15 0 16 0;
#X connect 16 0 13 0;
#X connect 17 0 46 1;
#X connect 18 0 17 3;
#X connect 19 0 18 0;
#X connect 20 0 19 0;
#X connect 21 0 20 0;
#X connect 22 0 17 2;
#X connect 23 0 22 0;
#X connect 24 0 23 0;
#X connect 25 0 24 0;
#X connect 26 0 17 1;
#X connect 27 0 26 0;
#X connect 28 0 27 0;
#X connect 29 0 17 0;
#X connect 30 0 29 0;
#X connect 31 0 30 0;
#X connect 32 0 28 0;
#X connect 33 0 31 0;
#X connect 34 1 48 0;
#X connect 35 0 45 0;
#X connect 36 0 41 0;
#X connect 37 0 36 0;
#X connect 38 0 39 0;
#X connect 39 0 36 1;
#X connect 40 0 37 0;
#X connect 40 1 38 0;
#X connect 41 0 35 0;
#X connect 42 0 43 0;
#X connect 43 0 44 0;
#X connect 44 0 47 0;
#X connect 45 0 42 0;
#X connect 46 0 34 0;
#X connect 47 0 46 0;
#X connect 47 1 34 1;
#X connect 48 0 1 0;
#X restore 440 339 pd integer-processor;
#N canvas 240 188 608 776 symbol-processor 0;
#X obj 148 68 inlet;
#X obj 68 666 outlet;
#X obj 148 193 list fromsymbol;
#X obj 306 315 list tosymbol;
#X obj 415 315 list tosymbol;
#X obj 198 452 list;
#X obj 198 315 list tosymbol;
#X obj 67 287 list length;
#X obj 68 555 list split;
#X floatatom 135 379 5 0 0 0 - - -;
#X obj 198 255 unpack f f f f f f f f, f 109;
#X obj 523 315 list tosymbol;
#X obj 632 315 list tosymbol;
#X obj 849 315 list tosymbol;
#X obj 958 315 list tosymbol;
#X obj 740 315 list tosymbol;
#X obj 198 378 pack s s s s s s s s, f 109;
#X connect 0 0 2 0;
#X connect 2 0 7 0;
#X connect 2 0 10 0;
#X connect 3 0 16 1;
#X connect 4 0 16 2;
#X connect 5 0 8 0;
#X connect 6 0 16 0;
#X connect 7 0 9 0;
#X connect 8 0 1 0;
#X connect 9 0 8 1;
#X connect 10 0 6 0;
#X connect 10 1 3 0;
#X connect 10 2 4 0;
#X connect 10 3 11 0;
#X connect 10 4 12 0;
#X connect 10 5 15 0;
#X connect 10 6 13 0;
#X connect 10 7 14 0;
#X connect 11 0 16 3;
#X connect 12 0 16 4;
#X connect 13 0 16 6;
#X connect 14 0 16 7;
#X connect 15 0 16 5;
#X connect 16 0 5 0;
#X restore 296 339 pd symbol-processor;
#X obj 440 458 print THE-LIST;
#X text 435 66 epic symbol & ingteger to list;
#X obj 296 262 route symbol i;
#X obj 132 149 inlet, f 10;
#X obj 296 456 outlet, f 10;
#X connect 0 0 8 0;
#X connect 1 0 8 0;
#X connect 2 0 8 0;
#X connect 3 0 8 0;
#X connect 4 0 10 0;
#X connect 5 0 10 0;
#X connect 8 0 5 0;
#X connect 8 2 4 0;
#X connect 9 0 8 0;
#X restore 473 217 pd conv;
#X obj 501 169 list prepend;
#X obj 856 459 inlet;
#X obj 854 572 outlet;
#X connect 0 0 11 0;
#X connect 1 0 4 0;
#X connect 2 0 0 0;
#X connect 2 1 1 1;
#X connect 2 1 20 0;
#X connect 3 0 1 0;
#X connect 3 1 6 0;
#X connect 3 2 2 1;
#X connect 3 2 15 0;
#X connect 4 0 5 0;
#X connect 4 0 7 0;
#X connect 5 0 4 1;
#X connect 5 0 16 0;
#X connect 6 0 4 1;
#X connect 6 0 9 0;
#X connect 6 0 8 1;
#X connect 7 0 2 0;
#X connect 8 0 9 0;
#X connect 9 0 8 1;
#X connect 9 0 13 0;
#X connect 9 0 20 1;
#X connect 10 0 11 1;
#X connect 11 0 8 0;
#X connect 12 0 19 0;
#X connect 14 0 10 1;
#X connect 14 0 12 0;
#X connect 15 0 17 1;
#X connect 16 0 17 0;
#X connect 17 0 14 0;
#X connect 18 0 3 0;
#X connect 19 0 10 0;
#X connect 20 0 21 0;
#X connect 21 0 27 0;
#X connect 23 0 18 0;
#X connect 24 0 18 0;
#X connect 25 0 24 0;
#X connect 26 0 25 0;
#X restore 1536 407 pd HexToDec;
#N canvas -8 -8 1920 1008 HexToDec 0;
#X obj 440 470 easyflow/hexCharToDec;
#X obj 343 336 until;
#X obj 361 420 list store;
#X obj 369 303 t b b l;
#X obj 343 361 f;
#X obj 381 362 + 1;
#X msg 395 336 0, f 2;
#X msg 342 390 get \$1 1;
#X obj 324 627 +;
#X obj 367 633 f;
#X obj 293 565 pow;
#X obj 312 596 *;
#X obj 274 492 bng 15 250 50 0 empty empty empty 17 7 0 10 -262144
-1 -1;
#X floatatom 348 662 5 0 0 0 - - -;
#X floatatom 325 528 5 0 0 0 - - -;
#X obj 347 465 list length;
#X obj 297 456 * -1;
#X obj 327 496 +;
#X obj 369 274 list;
#X obj 283 535 16;
#X obj 394 665 f;
#X floatatom 396 694 5 0 0 0 - - -;
#X obj 436 304 print;
#X msg 311 215 9 f 2;
#N canvas 260 299 450 385 conv 0;
#X msg 215 106 symbol f2g;
#X msg 296 71 symbol 2f4d;
#X msg 362 133 symbol fffffggg;
#X floatatom 441 192 12 0 0 0 - - -;
#N canvas -8 -8 1920 1008 integer-processor 0;
#X obj 607 31 inlet;
#X obj 245 812 outlet;
#X floatatom 606 72 12 0 0 0 - - -;
#X obj 611 288 % 10;
#X floatatom 611 392 5 0 0 0 - - -;
#X floatatom 566 392 5 0 0 0 - - -;
#X obj 565 348 i;
#X obj 518 287 / 100;
#X floatatom 515 393 5 0 0 0 - - -;
#X obj 517 350 i;
#X obj 565 288 / 10;
#X obj 563 316 % 10;
#X floatatom 453 394 5 0 0 0 - - -;
#X obj 451 349 i;
#X obj 523 320 % 10;
#X obj 456 288 / 1000;
#X obj 447 320 % 10;
#X obj 136 474 pack i i i i i i i i, f 65;
#X floatatom 377 392 5 0 0 0 - - -;
#X obj 375 347 i;
#X obj 371 318 % 10;
#X obj 380 286 / 10000;
#X floatatom 300 390 5 0 0 0 - - -;
#X obj 298 345 i;
#X obj 294 316 % 10;
#X obj 303 284 / 100000;
#X floatatom 224 393 5 0 0 0 - - -;
#X obj 222 348 i;
#X obj 218 319 % 10;
#X floatatom 136 390 5 0 0 0 - - -;
#X obj 134 345 i;
#X obj 130 316 % 10;
#X obj 227 287 / 1e+006;
#X obj 139 284 / 1e+007;
#X obj 212 725 list split;
#X floatatom 756 347 5 0 0 0 - - -;
#X obj 756 274 /;
#X obj 756 230 log;
#X msg 799 191 10;
#X obj 799 228 log;
#X obj 756 151 t i b;
#X obj 756 314 i;
#X obj 756 406 - 8;
#X obj 756 447 abs;
#X floatatom 756 498 5 0 0 0 - - -;
#X obj 756 377 + 1;
#X obj 186 645 list;
#X obj 247 588 t b i;
#X obj 243 774 list;
#X connect 0 0 2 0;
#X connect 2 0 3 0;
#X connect 2 0 7 0;
#X connect 2 0 10 0;
#X connect 2 0 15 0;
#X connect 2 0 21 0;
#X connect 2 0 25 0;
#X connect 2 0 32 0;
#X connect 2 0 33 0;
#X connect 2 0 40 0;
#X connect 3 0 4 0;
#X connect 4 0 17 7;
#X connect 5 0 17 6;
#X connect 6 0 5 0;
#X connect 7 0 14 0;
#X connect 8 0 17 5;
#X connect 9 0 8 0;
#X connect 10 0 11 0;
#X connect 11 0 6 0;
#X connect 12 0 17 4;
#X connect 13 0 12 0;
#X connect 14 0 9 0;
#X connect 15 0 16 0;
#X connect 16 0 13 0;
#X connect 17 0 46 1;
#X connect 18 0 17 3;
#X connect 19 0 18 0;
#X connect 20 0 19 0;
#X connect 21 0 20 0;
#X connect 22 0 17 2;
#X connect 23 0 22 0;
#X connect 24 0 23 0;
#X connect 25 0 24 0;
#X connect 26 0 17 1;
#X connect 27 0 26 0;
#X connect 28 0 27 0;
#X connect 29 0 17 0;
#X connect 30 0 29 0;
#X connect 31 0 30 0;
#X connect 32 0 28 0;
#X connect 33 0 31 0;
#X connect 34 1 48 0;
#X connect 35 0 45 0;
#X connect 36 0 41 0;
#X connect 37 0 36 0;
#X connect 38 0 39 0;
#X connect 39 0 36 1;
#X connect 40 0 37 0;
#X connect 40 1 38 0;
#X connect 41 0 35 0;
#X connect 42 0 43 0;
#X connect 43 0 44 0;
#X connect 44 0 47 0;
#X connect 45 0 42 0;
#X connect 46 0 34 0;
#X connect 47 0 46 0;
#X connect 47 1 34 1;
#X connect 48 0 1 0;
#X restore 440 339 pd integer-processor;
#N canvas 240 188 608 776 symbol-processor 0;
#X obj 148 68 inlet;
#X obj 68 666 outlet;
#X obj 148 193 list fromsymbol;
#X obj 306 315 list tosymbol;
#X obj 415 315 list tosymbol;
#X obj 198 452 list;
#X obj 198 315 list tosymbol;
#X obj 67 287 list length;
#X obj 68 555 list split;
#X floatatom 135 379 5 0 0 0 - - -;
#X obj 198 255 unpack f f f f f f f f, f 109;
#X obj 523 315 list tosymbol;
#X obj 632 315 list tosymbol;
#X obj 849 315 list tosymbol;
#X obj 958 315 list tosymbol;
#X obj 740 315 list tosymbol;
#X obj 198 378 pack s s s s s s s s, f 109;
#X connect 0 0 2 0;
#X connect 2 0 7 0;
#X connect 2 0 10 0;
#X connect 3 0 16 1;
#X connect 4 0 16 2;
#X connect 5 0 8 0;
#X connect 6 0 16 0;
#X connect 7 0 9 0;
#X connect 8 0 1 0;
#X connect 9 0 8 1;
#X connect 10 0 6 0;
#X connect 10 1 3 0;
#X connect 10 2 4 0;
#X connect 10 3 11 0;
#X connect 10 4 12 0;
#X connect 10 5 15 0;
#X connect 10 6 13 0;
#X connect 10 7 14 0;
#X connect 11 0 16 3;
#X connect 12 0 16 4;
#X connect 13 0 16 6;
#X connect 14 0 16 7;
#X connect 15 0 16 5;
#X connect 16 0 5 0;
#X restore 296 339 pd symbol-processor;
#X obj 440 458 print THE-LIST;
#X text 435 66 epic symbol & ingteger to list;
#X obj 296 262 route symbol i;
#X obj 132 149 inlet, f 10;
#X obj 296 456 outlet, f 10;
#X connect 0 0 8 0;
#X connect 1 0 8 0;
#X connect 2 0 8 0;
#X connect 3 0 8 0;
#X connect 4 0 10 0;
#X connect 5 0 10 0;
#X connect 8 0 5 0;
#X connect 8 2 4 0;
#X connect 9 0 8 0;
#X restore 473 217 pd conv;
#X obj 501 169 list prepend;
#X obj 856 459 inlet;
#X obj 854 572 outlet;
#X connect 0 0 11 0;
#X connect 1 0 4 0;
#X connect 2 0 0 0;
#X connect 2 1 1 1;
#X connect 2 1 20 0;
#X connect 3 0 1 0;
#X connect 3 1 6 0;
#X connect 3 2 2 1;
#X connect 3 2 15 0;
#X connect 4 0 5 0;
#X connect 4 0 7 0;
#X connect 5 0 4 1;
#X connect 5 0 16 0;
#X connect 6 0 4 1;
#X connect 6 0 9 0;
#X connect 6 0 8 1;
#X connect 7 0 2 0;
#X connect 8 0 9 0;
#X connect 9 0 8 1;
#X connect 9 0 13 0;
#X connect 9 0 20 1;
#X connect 10 0 11 1;
#X connect 11 0 8 0;
#X connect 12 0 19 0;
#X connect 14 0 10 1;
#X connect 14 0 12 0;
#X connect 15 0 17 1;
#X connect 16 0 17 0;
#X connect 17 0 14 0;
#X connect 18 0 3 0;
#X connect 19 0 10 0;
#X connect 20 0 21 0;
#X connect 21 0 27 0;
#X connect 23 0 18 0;
#X connect 24 0 18 0;
#X connect 25 0 24 0;
#X connect 26 0 25 0;
#X restore 263 931 pd HexToDec;
#X f 8;
#N canvas -8 -8 1920 1008 HexToDec 0;
#X obj 440 470 easyflow/hexCharToDec;
#X obj 343 336 until;
#X obj 361 420 list store;
#X obj 369 303 t b b l;
#X obj 343 361 f;
#X obj 381 362 + 1;
#X msg 395 336 0, f 2;
#X msg 342 390 get \$1 1;
#X obj 324 627 +;
#X obj 367 633 f;
#X obj 293 565 pow;
#X obj 312 596 *;
#X obj 274 492 bng 15 250 50 0 empty empty empty 17 7 0 10 -262144
-1 -1;
#X floatatom 348 662 5 0 0 0 - - -;
#X floatatom 325 528 5 0 0 0 - - -;
#X obj 347 465 list length;
#X obj 297 456 * -1;
#X obj 327 496 +;
#X obj 369 274 list;
#X obj 283 535 16;
#X obj 394 665 f;
#X floatatom 396 694 5 0 0 0 - - -;
#X obj 436 304 print;
#X msg 311 215 9 f 2;
#N canvas 260 299 450 385 conv 0;
#X msg 215 106 symbol f2g;
#X msg 296 71 symbol 2f4d;
#X msg 362 133 symbol fffffggg;
#X floatatom 441 192 12 0 0 0 - - -;
#N canvas -8 -8 1920 1008 integer-processor 0;
#X obj 607 31 inlet;
#X obj 245 812 outlet;
#X floatatom 606 72 12 0 0 0 - - -;
#X obj 611 288 % 10;
#X floatatom 611 392 5 0 0 0 - - -;
#X floatatom 566 392 5 0 0 0 - - -;
#X obj 565 348 i;
#X obj 518 287 / 100;
#X floatatom 515 393 5 0 0 0 - - -;
#X obj 517 350 i;
#X obj 565 288 / 10;
#X obj 563 316 % 10;
#X floatatom 453 394 5 0 0 0 - - -;
#X obj 451 349 i;
#X obj 523 320 % 10;
#X obj 456 288 / 1000;
#X obj 447 320 % 10;
#X obj 136 474 pack i i i i i i i i, f 65;
#X floatatom 377 392 5 0 0 0 - - -;
#X obj 375 347 i;
#X obj 371 318 % 10;
#X obj 380 286 / 10000;
#X floatatom 300 390 5 0 0 0 - - -;
#X obj 298 345 i;
#X obj 294 316 % 10;
#X obj 303 284 / 100000;
#X floatatom 224 393 5 0 0 0 - - -;
#X obj 222 348 i;
#X obj 218 319 % 10;
#X floatatom 136 390 5 0 0 0 - - -;
#X obj 134 345 i;
#X obj 130 316 % 10;
#X obj 227 287 / 1e+006;
#X obj 139 284 / 1e+007;
#X obj 212 725 list split;
#X floatatom 756 347 5 0 0 0 - - -;
#X obj 756 274 /;
#X obj 756 230 log;
#X msg 799 191 10;
#X obj 799 228 log;
#X obj 756 151 t i b;
#X obj 756 314 i;
#X obj 756 406 - 8;
#X obj 756 447 abs;
#X floatatom 756 498 5 0 0 0 - - -;
#X obj 756 377 + 1;
#X obj 186 645 list;
#X obj 247 588 t b i;
#X obj 243 774 list;
#X connect 0 0 2 0;
#X connect 2 0 3 0;
#X connect 2 0 7 0;
#X connect 2 0 10 0;
#X connect 2 0 15 0;
#X connect 2 0 21 0;
#X connect 2 0 25 0;
#X connect 2 0 32 0;
#X connect 2 0 33 0;
#X connect 2 0 40 0;
#X connect 3 0 4 0;
#X connect 4 0 17 7;
#X connect 5 0 17 6;
#X connect 6 0 5 0;
#X connect 7 0 14 0;
#X connect 8 0 17 5;
#X connect 9 0 8 0;
#X connect 10 0 11 0;
#X connect 11 0 6 0;
#X connect 12 0 17 4;
#X connect 13 0 12 0;
#X connect 14 0 9 0;
#X connect 15 0 16 0;
#X connect 16 0 13 0;
#X connect 17 0 46 1;
#X connect 18 0 17 3;
#X connect 19 0 18 0;
#X connect 20 0 19 0;
#X connect 21 0 20 0;
#X connect 22 0 17 2;
#X connect 23 0 22 0;
#X connect 24 0 23 0;
#X connect 25 0 24 0;
#X connect 26 0 17 1;
#X connect 27 0 26 0;
#X connect 28 0 27 0;
#X connect 29 0 17 0;
#X connect 30 0 29 0;
#X connect 31 0 30 0;
#X connect 32 0 28 0;
#X connect 33 0 31 0;
#X connect 34 1 48 0;
#X connect 35 0 45 0;
#X connect 36 0 41 0;
#X connect 37 0 36 0;
#X connect 38 0 39 0;
#X connect 39 0 36 1;
#X connect 40 0 37 0;
#X connect 40 1 38 0;
#X connect 41 0 35 0;
#X connect 42 0 43 0;
#X connect 43 0 44 0;
#X connect 44 0 47 0;
#X connect 45 0 42 0;
#X connect 46 0 34 0;
#X connect 47 0 46 0;
#X connect 47 1 34 1;
#X connect 48 0 1 0;
#X restore 440 339 pd integer-processor;
#N canvas 240 188 608 776 symbol-processor 0;
#X obj 148 68 inlet;
#X obj 68 666 outlet;
#X obj 148 193 list fromsymbol;
#X obj 306 315 list tosymbol;
#X obj 415 315 list tosymbol;
#X obj 198 452 list;
#X obj 198 315 list tosymbol;
#X obj 67 287 list length;
#X obj 68 555 list split;
#X floatatom 135 379 5 0 0 0 - - -;
#X obj 198 255 unpack f f f f f f f f, f 109;
#X obj 523 315 list tosymbol;
#X obj 632 315 list tosymbol;
#X obj 849 315 list tosymbol;
#X obj 958 315 list tosymbol;
#X obj 740 315 list tosymbol;
#X obj 198 378 pack s s s s s s s s, f 109;
#X connect 0 0 2 0;
#X connect 2 0 7 0;
#X connect 2 0 10 0;
#X connect 3 0 16 1;
#X connect 4 0 16 2;
#X connect 5 0 8 0;
#X connect 6 0 16 0;
#X connect 7 0 9 0;
#X connect 8 0 1 0;
#X connect 9 0 8 1;
#X connect 10 0 6 0;
#X connect 10 1 3 0;
#X connect 10 2 4 0;
#X connect 10 3 11 0;
#X connect 10 4 12 0;
#X connect 10 5 15 0;
#X connect 10 6 13 0;
#X connect 10 7 14 0;
#X connect 11 0 16 3;
#X connect 12 0 16 4;
#X connect 13 0 16 6;
#X connect 14 0 16 7;
#X connect 15 0 16 5;
#X connect 16 0 5 0;
#X restore 296 339 pd symbol-processor;
#X obj 440 458 print THE-LIST;
#X text 435 66 epic symbol & ingteger to list;
#X obj 296 262 route symbol i;
#X obj 132 149 inlet, f 10;
#X obj 296 456 outlet, f 10;
#X connect 0 0 8 0;
#X connect 1 0 8 0;
#X connect 2 0 8 0;
#X connect 3 0 8 0;
#X connect 4 0 10 0;
#X connect 5 0 10 0;
#X connect 8 0 5 0;
#X connect 8 2 4 0;
#X connect 9 0 8 0;
#X restore 473 217 pd conv;
#X obj 501 169 list prepend;
#X obj 856 459 inlet;
#X obj 854 572 outlet;
#X connect 0 0 11 0;
#X connect 1 0 4 0;
#X connect 2 0 0 0;
#X connect 2 1 1 1;
#X connect 2 1 20 0;
#X connect 3 0 1 0;
#X connect 3 1 6 0;
#X connect 3 2 2 1;
#X connect 3 2 15 0;
#X connect 4 0 5 0;
#X connect 4 0 7 0;
#X connect 5 0 4 1;
#X connect 5 0 16 0;
#X connect 6 0 4 1;
#X connect 6 0 9 0;
#X connect 6 0 8 1;
#X connect 7 0 2 0;
#X connect 8 0 9 0;
#X connect 9 0 8 1;
#X connect 9 0 13 0;
#X connect 9 0 20 1;
#X connect 10 0 11 1;
#X connect 11 0 8 0;
#X connect 12 0 19 0;
#X connect 14 0 10 1;
#X connect 14 0 12 0;
#X connect 15 0 17 1;
#X connect 16 0 17 0;
#X connect 17 0 14 0;
#X connect 18 0 3 0;
#X connect 19 0 10 0;
#X connect 20 0 21 0;
#X connect 21 0 27 0;
#X connect 23 0 18 0;
#X connect 24 0 18 0;
#X connect 25 0 24 0;
#X connect 26 0 25 0;
#X restore 333 929 pd HexToDec;
#X f 8;
#N canvas -8 -8 1920 1008 HexToDec 0;
#X obj 440 470 easyflow/hexCharToDec;
#X obj 343 336 until;
#X obj 361 420 list store;
#X obj 369 303 t b b l;
#X obj 343 361 f;
#X obj 381 362 + 1;
#X msg 395 336 0, f 2;
#X msg 342 390 get \$1 1;
#X obj 324 627 +;
#X obj 367 633 f;
#X obj 293 565 pow;
#X obj 312 596 *;
#X obj 274 492 bng 15 250 50 0 empty empty empty 17 7 0 10 -262144
-1 -1;
#X floatatom 348 662 5 0 0 0 - - -;
#X floatatom 325 528 5 0 0 0 - - -;
#X obj 347 465 list length;
#X obj 297 456 * -1;
#X obj 327 496 +;
#X obj 369 274 list;
#X obj 283 535 16;
#X obj 394 665 f;
#X floatatom 396 694 5 0 0 0 - - -;
#X obj 436 304 print;
#X msg 311 215 9 f 2;
#N canvas 260 299 450 385 conv 0;
#X msg 215 106 symbol f2g;
#X msg 296 71 symbol 2f4d;
#X msg 362 133 symbol fffffggg;
#X floatatom 441 192 12 0 0 0 - - -;
#N canvas -8 -8 1920 1008 integer-processor 0;
#X obj 607 31 inlet;
#X obj 245 812 outlet;
#X floatatom 606 72 12 0 0 0 - - -;
#X obj 611 288 % 10;
#X floatatom 611 392 5 0 0 0 - - -;
#X floatatom 566 392 5 0 0 0 - - -;
#X obj 565 348 i;
#X obj 518 287 / 100;
#X floatatom 515 393 5 0 0 0 - - -;
#X obj 517 350 i;
#X obj 565 288 / 10;
#X obj 563 316 % 10;
#X floatatom 453 394 5 0 0 0 - - -;
#X obj 451 349 i;
#X obj 523 320 % 10;
#X obj 456 288 / 1000;
#X obj 447 320 % 10;
#X obj 136 474 pack i i i i i i i i, f 65;
#X floatatom 377 392 5 0 0 0 - - -;
#X obj 375 347 i;
#X obj 371 318 % 10;
#X obj 380 286 / 10000;
#X floatatom 300 390 5 0 0 0 - - -;
#X obj 298 345 i;
#X obj 294 316 % 10;
#X obj 303 284 / 100000;
#X floatatom 224 393 5 0 0 0 - - -;
#X obj 222 348 i;
#X obj 218 319 % 10;
#X floatatom 136 390 5 0 0 0 - - -;
#X obj 134 345 i;
#X obj 130 316 % 10;
#X obj 227 287 / 1e+006;
#X obj 139 284 / 1e+007;
#X obj 212 725 list split;
#X floatatom 756 347 5 0 0 0 - - -;
#X obj 756 274 /;
#X obj 756 230 log;
#X msg 799 191 10;
#X obj 799 228 log;
#X obj 756 151 t i b;
#X obj 756 314 i;
#X obj 756 406 - 8;
#X obj 756 447 abs;
#X floatatom 756 498 5 0 0 0 - - -;
#X obj 756 377 + 1;
#X obj 186 645 list;
#X obj 247 588 t b i;
#X obj 243 774 list;
#X connect 0 0 2 0;
#X connect 2 0 3 0;
#X connect 2 0 7 0;
#X connect 2 0 10 0;
#X connect 2 0 15 0;
#X connect 2 0 21 0;
#X connect 2 0 25 0;
#X connect 2 0 32 0;
#X connect 2 0 33 0;
#X connect 2 0 40 0;
#X connect 3 0 4 0;
#X connect 4 0 17 7;
#X connect 5 0 17 6;
#X connect 6 0 5 0;
#X connect 7 0 14 0;
#X connect 8 0 17 5;
#X connect 9 0 8 0;
#X connect 10 0 11 0;
#X connect 11 0 6 0;
#X connect 12 0 17 4;
#X connect 13 0 12 0;
#X connect 14 0 9 0;
#X connect 15 0 16 0;
#X connect 16 0 13 0;
#X connect 17 0 46 1;
#X connect 18 0 17 3;
#X connect 19 0 18 0;
#X connect 20 0 19 0;
#X connect 21 0 20 0;
#X connect 22 0 17 2;
#X connect 23 0 22 0;
#X connect 24 0 23 0;
#X connect 25 0 24 0;
#X connect 26 0 17 1;
#X connect 27 0 26 0;
#X connect 28 0 27 0;
#X connect 29 0 17 0;
#X connect 30 0 29 0;
#X connect 31 0 30 0;
#X connect 32 0 28 0;
#X connect 33 0 31 0;
#X connect 34 1 48 0;
#X connect 35 0 45 0;
#X connect 36 0 41 0;
#X connect 37 0 36 0;
#X connect 38 0 39 0;
#X connect 39 0 36 1;
#X connect 40 0 37 0;
#X connect 40 1 38 0;
#X connect 41 0 35 0;
#X connect 42 0 43 0;
#X connect 43 0 44 0;
#X connect 44 0 47 0;
#X connect 45 0 42 0;
#X connect 46 0 34 0;
#X connect 47 0 46 0;
#X connect 47 1 34 1;
#X connect 48 0 1 0;
#X restore 440 339 pd integer-processor;
#N canvas 240 188 608 776 symbol-processor 0;
#X obj 148 68 inlet;
#X obj 68 666 outlet;
#X obj 148 193 list fromsymbol;
#X obj 306 315 list tosymbol;
#X obj 415 315 list tosymbol;
#X obj 198 452 list;
#X obj 198 315 list tosymbol;
#X obj 67 287 list length;
#X obj 68 555 list split;
#X floatatom 135 379 5 0 0 0 - - -;
#X obj 198 255 unpack f f f f f f f f, f 109;
#X obj 523 315 list tosymbol;
#X obj 632 315 list tosymbol;
#X obj 849 315 list tosymbol;
#X obj 958 315 list tosymbol;
#X obj 740 315 list tosymbol;
#X obj 198 378 pack s s s s s s s s, f 109;
#X connect 0 0 2 0;
#X connect 2 0 7 0;
#X connect 2 0 10 0;
#X connect 3 0 16 1;
#X connect 4 0 16 2;
#X connect 5 0 8 0;
#X connect 6 0 16 0;
#X connect 7 0 9 0;
#X connect 8 0 1 0;
#X connect 9 0 8 1;
#X connect 10 0 6 0;
#X connect 10 1 3 0;
#X connect 10 2 4 0;
#X connect 10 3 11 0;
#X connect 10 4 12 0;
#X connect 10 5 15 0;
#X connect 10 6 13 0;
#X connect 10 7 14 0;
#X connect 11 0 16 3;
#X connect 12 0 16 4;
#X connect 13 0 16 6;
#X connect 14 0 16 7;
#X connect 15 0 16 5;
#X connect 16 0 5 0;
#X restore 296 339 pd symbol-processor;
#X obj 440 458 print THE-LIST;
#X text 435 66 epic symbol & ingteger to list;
#X obj 296 262 route symbol i;
#X obj 132 149 inlet, f 10;
#X obj 296 456 outlet, f 10;
#X connect 0 0 8 0;
#X connect 1 0 8 0;
#X connect 2 0 8 0;
#X connect 3 0 8 0;
#X connect 4 0 10 0;
#X connect 5 0 10 0;
#X connect 8 0 5 0;
#X connect 8 2 4 0;
#X connect 9 0 8 0;
#X restore 473 217 pd conv;
#X obj 501 169 list prepend;
#X obj 856 459 inlet;
#X obj 854 572 outlet;
#X connect 0 0 11 0;
#X connect 1 0 4 0;
#X connect 2 0 0 0;
#X connect 2 1 1 1;
#X connect 2 1 20 0;
#X connect 3 0 1 0;
#X connect 3 1 6 0;
#X connect 3 2 2 1;
#X connect 3 2 15 0;
#X connect 4 0 5 0;
#X connect 4 0 7 0;
#X connect 5 0 4 1;
#X connect 5 0 16 0;
#X connect 6 0 4 1;
#X connect 6 0 9 0;
#X connect 6 0 8 1;
#X connect 7 0 2 0;
#X connect 8 0 9 0;
#X connect 9 0 8 1;
#X connect 9 0 13 0;
#X connect 9 0 20 1;
#X connect 10 0 11 1;
#X connect 11 0 8 0;
#X connect 12 0 19 0;
#X connect 14 0 10 1;
#X connect 14 0 12 0;
#X connect 15 0 17 1;
#X connect 16 0 17 0;
#X connect 17 0 14 0;
#X connect 18 0 3 0;
#X connect 19 0 10 0;
#X connect 20 0 21 0;
#X connect 21 0 27 0;
#X connect 23 0 18 0;
#X connect 24 0 18 0;
#X connect 25 0 24 0;
#X connect 26 0 25 0;
#X restore 403 927 pd HexToDec;
#X f 8;
#N canvas -8 -8 1920 1008 HexToDec 0;
#X obj 440 470 easyflow/hexCharToDec;
#X obj 343 336 until;
#X obj 361 420 list store;
#X obj 369 303 t b b l;
#X obj 343 361 f;
#X obj 381 362 + 1;
#X msg 395 336 0, f 2;
#X msg 342 390 get \$1 1;
#X obj 324 627 +;
#X obj 367 633 f;
#X obj 293 565 pow;
#X obj 312 596 *;
#X obj 274 492 bng 15 250 50 0 empty empty empty 17 7 0 10 -262144
-1 -1;
#X floatatom 348 662 5 0 0 0 - - -;
#X floatatom 325 528 5 0 0 0 - - -;
#X obj 347 465 list length;
#X obj 297 456 * -1;
#X obj 327 496 +;
#X obj 369 274 list;
#X obj 283 535 16;
#X obj 394 665 f;
#X floatatom 396 694 5 0 0 0 - - -;
#X obj 436 304 print;
#X msg 311 215 9 f 2;
#N canvas 260 299 450 385 conv 0;
#X msg 215 106 symbol f2g;
#X msg 296 71 symbol 2f4d;
#X msg 362 133 symbol fffffggg;
#X floatatom 441 192 12 0 0 0 - - -;
#N canvas -8 -8 1920 1008 integer-processor 0;
#X obj 607 31 inlet;
#X obj 245 812 outlet;
#X floatatom 606 72 12 0 0 0 - - -;
#X obj 611 288 % 10;
#X floatatom 611 392 5 0 0 0 - - -;
#X floatatom 566 392 5 0 0 0 - - -;
#X obj 565 348 i;
#X obj 518 287 / 100;
#X floatatom 515 393 5 0 0 0 - - -;
#X obj 517 350 i;
#X obj 565 288 / 10;
#X obj 563 316 % 10;
#X floatatom 453 394 5 0 0 0 - - -;
#X obj 451 349 i;
#X obj 523 320 % 10;
#X obj 456 288 / 1000;
#X obj 447 320 % 10;
#X obj 136 474 pack i i i i i i i i, f 65;
#X floatatom 377 392 5 0 0 0 - - -;
#X obj 375 347 i;
#X obj 371 318 % 10;
#X obj 380 286 / 10000;
#X floatatom 300 390 5 0 0 0 - - -;
#X obj 298 345 i;
#X obj 294 316 % 10;
#X obj 303 284 / 100000;
#X floatatom 224 393 5 0 0 0 - - -;
#X obj 222 348 i;
#X obj 218 319 % 10;
#X floatatom 136 390 5 0 0 0 - - -;
#X obj 134 345 i;
#X obj 130 316 % 10;
#X obj 227 287 / 1e+006;
#X obj 139 284 / 1e+007;
#X obj 212 725 list split;
#X floatatom 756 347 5 0 0 0 - - -;
#X obj 756 274 /;
#X obj 756 230 log;
#X msg 799 191 10;
#X obj 799 228 log;
#X obj 756 151 t i b;
#X obj 756 314 i;
#X obj 756 406 - 8;
#X obj 756 447 abs;
#X floatatom 756 498 5 0 0 0 - - -;
#X obj 756 377 + 1;
#X obj 186 645 list;
#X obj 247 588 t b i;
#X obj 243 774 list;
#X connect 0 0 2 0;
#X connect 2 0 3 0;
#X connect 2 0 7 0;
#X connect 2 0 10 0;
#X connect 2 0 15 0;
#X connect 2 0 21 0;
#X connect 2 0 25 0;
#X connect 2 0 32 0;
#X connect 2 0 33 0;
#X connect 2 0 40 0;
#X connect 3 0 4 0;
#X connect 4 0 17 7;
#X connect 5 0 17 6;
#X connect 6 0 5 0;
#X connect 7 0 14 0;
#X connect 8 0 17 5;
#X connect 9 0 8 0;
#X connect 10 0 11 0;
#X connect 11 0 6 0;
#X connect 12 0 17 4;
#X connect 13 0 12 0;
#X connect 14 0 9 0;
#X connect 15 0 16 0;
#X connect 16 0 13 0;
#X connect 17 0 46 1;
#X connect 18 0 17 3;
#X connect 19 0 18 0;
#X connect 20 0 19 0;
#X connect 21 0 20 0;
#X connect 22 0 17 2;
#X connect 23 0 22 0;
#X connect 24 0 23 0;
#X connect 25 0 24 0;
#X connect 26 0 17 1;
#X connect 27 0 26 0;
#X connect 28 0 27 0;
#X connect 29 0 17 0;
#X connect 30 0 29 0;
#X connect 31 0 30 0;
#X connect 32 0 28 0;
#X connect 33 0 31 0;
#X connect 34 1 48 0;
#X connect 35 0 45 0;
#X connect 36 0 41 0;
#X connect 37 0 36 0;
#X connect 38 0 39 0;
#X connect 39 0 36 1;
#X connect 40 0 37 0;
#X connect 40 1 38 0;
#X connect 41 0 35 0;
#X connect 42 0 43 0;
#X connect 43 0 44 0;
#X connect 44 0 47 0;
#X connect 45 0 42 0;
#X connect 46 0 34 0;
#X connect 47 0 46 0;
#X connect 47 1 34 1;
#X connect 48 0 1 0;
#X restore 440 339 pd integer-processor;
#N canvas 240 188 608 776 symbol-processor 0;
#X obj 148 68 inlet;
#X obj 68 666 outlet;
#X obj 148 193 list fromsymbol;
#X obj 306 315 list tosymbol;
#X obj 415 315 list tosymbol;
#X obj 198 452 list;
#X obj 198 315 list tosymbol;
#X obj 67 287 list length;
#X obj 68 555 list split;
#X floatatom 135 379 5 0 0 0 - - -;
#X obj 198 255 unpack f f f f f f f f, f 109;
#X obj 523 315 list tosymbol;
#X obj 632 315 list tosymbol;
#X obj 849 315 list tosymbol;
#X obj 958 315 list tosymbol;
#X obj 740 315 list tosymbol;
#X obj 198 378 pack s s s s s s s s, f 109;
#X connect 0 0 2 0;
#X connect 2 0 7 0;
#X connect 2 0 10 0;
#X connect 3 0 16 1;
#X connect 4 0 16 2;
#X connect 5 0 8 0;
#X connect 6 0 16 0;
#X connect 7 0 9 0;
#X connect 8 0 1 0;
#X connect 9 0 8 1;
#X connect 10 0 6 0;
#X connect 10 1 3 0;
#X connect 10 2 4 0;
#X connect 10 3 11 0;
#X connect 10 4 12 0;
#X connect 10 5 15 0;
#X connect 10 6 13 0;
#X connect 10 7 14 0;
#X connect 11 0 16 3;
#X connect 12 0 16 4;
#X connect 13 0 16 6;
#X connect 14 0 16 7;
#X connect 15 0 16 5;
#X connect 16 0 5 0;
#X restore 296 339 pd symbol-processor;
#X obj 440 458 print THE-LIST;
#X text 435 66 epic symbol & ingteger to list;
#X obj 296 262 route symbol i;
#X obj 132 149 inlet, f 10;
#X obj 296 456 outlet, f 10;
#X connect 0 0 8 0;
#X connect 1 0 8 0;
#X connect 2 0 8 0;
#X connect 3 0 8 0;
#X connect 4 0 10 0;
#X connect 5 0 10 0;
#X connect 8 0 5 0;
#X connect 8 2 4 0;
#X connect 9 0 8 0;
#X restore 473 217 pd conv;
#X obj 501 169 list prepend;
#X obj 856 459 inlet;
#X obj 854 572 outlet;
#X connect 0 0 11 0;
#X connect 1 0 4 0;
#X connect 2 0 0 0;
#X connect 2 1 1 1;
#X connect 2 1 20 0;
#X connect 3 0 1 0;
#X connect 3 1 6 0;
#X connect 3 2 2 1;
#X connect 3 2 15 0;
#X connect 4 0 5 0;
#X connect 4 0 7 0;
#X connect 5 0 4 1;
#X connect 5 0 16 0;
#X connect 6 0 4 1;
#X connect 6 0 9 0;
#X connect 6 0 8 1;
#X connect 7 0 2 0;
#X connect 8 0 9 0;
#X connect 9 0 8 1;
#X connect 9 0 13 0;
#X connect 9 0 20 1;
#X connect 10 0 11 1;
#X connect 11 0 8 0;
#X connect 12 0 19 0;
#X connect 14 0 10 1;
#X connect 14 0 12 0;
#X connect 15 0 17 1;
#X connect 16 0 17 0;
#X connect 17 0 14 0;
#X connect 18 0 3 0;
#X connect 19 0 10 0;
#X connect 20 0 21 0;
#X connect 21 0 27 0;
#X connect 23 0 18 0;
#X connect 24 0 18 0;
#X connect 25 0 24 0;
#X connect 26 0 25 0;
#X restore 475 926 pd HexToDec;
#X f 8;
#X obj 277 885 r AIN0;
#X connect 0 0 66 0;
#X connect 6 0 5 0;
#X connect 9 0 8 0;
#X connect 11 0 10 0;
#X connect 13 0 12 0;
#X connect 14 0 141 0;
#X connect 15 0 142 0;
#X connect 16 0 143 0;
#X connect 19 0 26 0;
#X connect 20 0 49 0;
#X connect 21 0 49 1;
#X connect 22 0 23 0;
#X connect 22 0 56 0;
#X connect 23 0 29 0;
#X connect 24 0 22 1;
#X connect 25 0 24 0;
#X connect 26 0 22 0;
#X connect 27 0 22 1;
#X connect 28 0 27 1;
#X connect 29 0 18 1;
#X connect 29 0 30 0;
#X connect 29 0 44 1;
#X connect 29 0 45 0;
#X connect 30 0 31 0;
#X connect 31 0 18 0;
#X connect 32 0 2 0;
#X connect 32 0 137 0;
#X connect 34 0 42 0;
#X connect 36 0 37 0;
#X connect 37 0 38 0;
#X connect 38 0 39 0;
#X connect 38 0 34 0;
#X connect 38 0 44 0;
#X connect 39 0 41 0;
#X connect 40 0 37 1;
#X connect 41 0 38 1;
#X connect 41 0 40 0;
#X connect 43 0 42 1;
#X connect 44 0 43 0;
#X connect 45 0 36 0;
#X connect 46 0 51 0;
#X connect 49 0 19 0;
#X connect 51 0 47 0;
#X connect 51 0 54 0;
#X connect 51 1 52 0;
#X connect 51 1 55 0;
#X connect 52 0 53 0;
#X connect 53 0 47 0;
#X connect 56 0 22 1;
#X connect 56 0 27 0;
#X connect 56 0 28 0;
#X connect 57 0 31 1;
#X connect 58 0 66 0;
#X connect 59 0 66 0;
#X connect 59 0 70 0;
#X connect 61 0 67 0;
#X connect 61 1 89 0;
#X connect 62 0 66 0;
#X connect 64 0 66 0;
#X connect 65 0 64 0;
#X connect 66 0 132 0;
#X connect 66 1 61 0;
#X connect 67 0 69 0;
#X connect 67 1 68 0;
#X connect 69 0 71 0;
#X connect 70 0 71 1;
#X connect 71 0 60 0;
#X connect 71 0 72 0;
#X connect 71 0 74 0;
#X connect 71 0 79 0;
#X connect 72 0 71 1;
#X connect 73 0 80 0;
#X connect 73 1 92 0;
#X connect 74 1 77 0;
#X connect 74 2 73 1;
#X connect 75 0 76 0;
#X connect 75 0 78 0;
#X connect 76 0 75 1;
#X connect 77 0 75 1;
#X connect 78 0 73 0;
#X connect 79 0 75 0;
#X connect 80 0 84 1;
#X connect 81 0 74 0;
#X connect 81 0 79 0;
#X connect 83 0 97 0;
#X connect 84 0 85 0;
#X connect 85 0 129 0;
#X connect 87 0 93 0;
#X connect 90 0 59 0;
#X connect 92 0 77 0;
#X connect 92 0 93 0;
#X connect 93 0 79 0;
#X connect 94 0 96 0;
#X connect 96 0 129 0;
#X connect 97 0 84 0;
#X connect 97 0 20 0;
#X connect 97 1 96 0;
#X connect 99 0 107 1;
#X connect 99 0 109 1;
#X connect 99 0 116 1;
#X connect 99 0 124 1;
#X connect 100 0 98 0;
#X connect 100 0 135 0;
#X connect 102 0 107 0;
#X connect 103 0 101 0;
#X connect 103 0 134 0;
#X connect 105 0 109 0;
#X connect 106 0 104 0;
#X connect 106 0 139 0;
#X connect 107 0 108 0;
#X connect 108 0 111 0;
#X connect 109 0 110 0;
#X connect 110 0 112 0;
#X connect 114 0 116 0;
#X connect 115 0 113 0;
#X connect 115 0 138 0;
#X connect 116 0 117 0;
#X connect 117 0 118 0;
#X connect 123 0 124 0;
#X connect 124 0 125 0;
#X connect 125 0 126 0;
#X connect 127 0 122 0;
#X connect 127 0 136 0;
#X connect 130 0 66 0;
#X connect 131 0 133 0;
#X connect 132 0 1 0;
#X connect 132 0 3 0;
#X connect 132 1 1 1;
#X connect 132 1 3 0;
#X connect 133 0 57 0;
#X connect 134 0 102 0;
#X connect 135 0 99 0;
#X connect 136 0 123 0;
#X connect 137 0 33 0;
#X connect 138 0 114 0;
#X connect 139 0 105 0;
#X connect 140 0 6 0;
#X connect 141 0 9 0;
#X connect 142 0 11 0;
#X connect 143 0 13 0;
#X connect 144 0 140 0;
