#N canvas 1171 250 448 303 12;
#X obj 83 88 comport 3 115200;
#X obj 69 182 list tosymbol;
#X obj 67 230 print;
#X obj 81 28 bng 15 250 50 0 empty empty empty 17 7 0 10 -262144 -1
-1;
#N canvas 0 50 450 250 (subpatch) 0;
#X coords 0 1 100 -1 200 140 1 0 0;
#X restore 250 134 graph;
#X obj 181 134 vsl 15 128 0 127 0 0 empty empty empty 0 -9 0 10 -262144
-1 -1 1000 1;
#X connect 0 0 1 0;
#X connect 0 0 5 0;
#X connect 1 0 2 0;
#X connect 3 0 0 0;
